<?xml version="1.0" encoding="UTF-8" standalone="no"?>
<!-- Created with Inkscape (http://www.inkscape.org/) -->

<svg
   width="210.10062mm"
   height="348.39694mm"
   viewBox="0 0 210.10062 348.39695"
   version="1.1"
   id="svg5"
   inkscape:version="1.1 (c68e22c387, 2021-05-23)"
   sodipodi:docname="KAKOI.svg"
   xmlns:inkscape="http://www.inkscape.org/namespaces/inkscape"
   xmlns:sodipodi="http://sodipodi.sourceforge.net/DTD/sodipodi-0.dtd"
   xmlns="http://www.w3.org/2000/svg"
   xmlns:svg="http://www.w3.org/2000/svg">
  <sodipodi:namedview
     id="namedview7"
     pagecolor="#ffffff"
     bordercolor="#999999"
     borderopacity="1"
     inkscape:pageshadow="0"
     inkscape:pageopacity="0"
     inkscape:pagecheckerboard="0"
     inkscape:document-units="mm"
     showgrid="false"
     inkscape:snap-smooth-nodes="true"
     showguides="true"
     inkscape:guide-bbox="true"
     inkscape:object-paths="true"
     inkscape:snap-intersection-paths="true"
     inkscape:zoom="1.15"
     inkscape:cx="465.65217"
     inkscape:cy="1005.2174"
     inkscape:window-width="2152"
     inkscape:window-height="1368"
     inkscape:window-x="1272"
     inkscape:window-y="0"
     inkscape:window-maximized="0"
     inkscape:current-layer="layer1"
     inkscape:snap-nodes="true" />
  <defs
     id="defs2" />
  <g
     inkscape:label="Layer 1"
     inkscape:groupmode="layer"
     id="layer1"
     transform="translate(0.0503,101.40595)">
    <g
       id="g76876"
       transform="translate(177.79502,97.316061)">
      <g
         id="g76617"
         transform="translate(58.131139,-131.06033)" />
    </g>
    <g
       id="g4822"
       transform="translate(0,-12.945258)">
      <path
         id="path58405"
         style="fill:none;fill-opacity:1;stroke:#000000;stroke-width:0.1;stroke-linecap:round;stroke-miterlimit:4;stroke-dasharray:none;stroke-opacity:1"
         d="m 5.00043,31.07029 c -2.76997,0 -5.00023,2.2297 -5.00023,4.99969 v 42.99996 l 4.9997,-4.99969 5.00023,4.99969 V 41.0702 h 20.00033 v -9.99991 z m 42.00001,0 v 9.99991 h 55.49998 l 5.0002,-5.00022 -5.0002,-4.99969 z M 5.00043,35.07004 c 0.55244,-2.49e-4 1.00042,0.447503 1.00045,0.99994 2.5e-4,0.55264 -0.44781,1.000709 -1.00045,1.00046 -0.55244,-3.3e-5 -1.00019,-0.448019 -0.99994,-1.00046 3e-5,-0.552238 0.4477,-0.999907 0.99994,-0.99994 z m 51.99994,0 c 0.55243,5e-5 1.00016,0.448031 0.99991,1.00046 -3e-5,0.552226 -0.44768,0.99989 -0.99991,0.99994 -0.55224,-3.3e-5 -0.99991,-0.447702 -0.99994,-0.99994 -2.5e-4,-0.552441 0.4475,-1.000427 0.99994,-1.00046 z m 35.50015,0 c 0.55244,3.3e-5 1.00019,0.448019 0.99994,1.00046 -3e-5,0.552238 -0.4477,0.999907 -0.99994,0.99994 -0.55224,-3.3e-5 -0.99991,-0.447702 -0.99994,-0.99994 -2.5e-4,-0.552441 0.4475,-1.000427 0.99994,-1.00046 z M 4.9994,68.0701 c 0.55243,-2.43e-4 1.00041,0.447507 1.00044,0.99994 -4e-5,0.552429 -0.44801,1.000173 -1.00044,0.99993 -0.55223,-3.3e-5 -0.9999,-0.447696 -0.99994,-0.99993 3e-5,-0.552238 0.4477,-0.999907 0.99994,-0.99994 z"
         sodipodi:nodetypes="ssccccccscccccccccccccccccccccccccc" />
      <path
         id="path58852"
         style="fill:none;fill-opacity:1;stroke:#000000;stroke-width:0.1;stroke-linecap:round;stroke-miterlimit:4;stroke-dasharray:none;stroke-opacity:1"
         d="m 102.50042,31.07029 5.0002,4.99969 -5.0002,5.00022 h 97.49999 v 37.99974 l 4.9997,4.9997 5.0002,-4.9997 V 36.06998 c 0,-2.76999 -2.2302,-4.99969 -5.0002,-4.99969 z m 9.9999,3.99975 a 1,1 0 0 1 0.99994,1.00046 1,1 0 0 1 -0.99994,0.99994 1,1 0 0 1 -0.99994,-0.99994 1,1 0 0 1 0.99994,-1.00046 z m 92.50029,0 a 1,1 0 0 1 1.00047,0.99994 1,1 0 0 1 -1.00047,1.00046 1,1 0 0 1 -0.99994,-1.00046 1,1 0 0 1 0.99994,-0.99994 z m 0,33.00006 a 1,1 0 0 1 1.00044,0.99994 1,1 0 0 1 -1.00044,0.99993 1,1 0 0 1 -0.99994,-0.99993 1,1 0 0 1 0.99994,-0.99994 z" />
      <path
         id="path59551"
         style="fill:none;fill-opacity:1;stroke:#000000;stroke-width:0.1;stroke-linecap:round;stroke-miterlimit:4;stroke-dasharray:none;stroke-opacity:1"
         d="m 199.99988,79.06994 v 37.99975 h -92.50029 l -5.0002,5.00021 5.0002,4.9997 h 97.49999 c 2.76998,0 5.00023,-2.2297 5.0002,-4.9997 V 79.06994 l -4.99967,4.9997 z m 5.00023,8.99997 a 1,1 0 0 1 0.99994,0.99994 1,1 0 0 1 -0.99994,0.99994 1,1 0 0 1 -1.00047,-0.99994 1,1 0 0 1 1.00047,-0.99994 z m -87.50062,32.99954 a 1,1 0 0 1 0.99994,0.99994 1,1 0 0 1 -0.99994,1.00045 1,1 0 0 1 -0.99994,-1.00045 1,1 0 0 1 0.99994,-0.99994 z m 87.50009,0 a 1,1 0 0 1 0.99994,1.00045 1,1 0 0 1 -0.99994,0.99994 1,1 0 0 1 -1.00044,-0.99994 1,1 0 0 1 1.00044,-1.00045 z" />
      <path
         id="path59553"
         style="fill:none;fill-opacity:1;stroke:#000000;stroke-width:0.1;stroke-linecap:round;stroke-miterlimit:4;stroke-dasharray:none;stroke-opacity:1"
         d="M 4.9999,74.07025 -3e-4,79.06994 v 42.99996 c 0,2.76999 2.2302,4.9997 5.0002,4.9997 h 102.49969 l -5.0002,-4.9997 5.0002,-5.00021 H 9.9996 V 79.06994 Z m 0,13.99966 A 1,1 0 0 1 6.00037,89.06985 1,1 0 0 1 4.9999,90.06979 1,1 0 0 1 3.99996,89.06985 1,1 0 0 1 4.9999,88.06991 Z m 0,32.99954 a 1,1 0 0 1 0.99994,1.00045 1,1 0 0 1 -0.99994,0.99994 1,1 0 0 1 -1.00047,-0.99994 1,1 0 0 1 1.00047,-1.00045 z m 92.50029,0 a 1,1 0 0 1 0.99994,0.99994 1,1 0 0 1 -0.99994,1.00045 1,1 0 0 1 -0.99994,-1.00045 1,1 0 0 1 0.99994,-0.99994 z" />
    </g>
    <text
       xml:space="preserve"
       style="font-style:normal;font-weight:normal;font-size:5.73927px;line-height:1.25;font-family:sans-serif;fill:#000000;fill-opacity:1;stroke:none;stroke-width:0.1;stroke-miterlimit:4;stroke-dasharray:none"
       x="67.416466"
       y="246.90489"
       id="text70148"><tspan
         sodipodi:role="line"
         id="tspan70146"
         style="font-style:normal;font-variant:normal;font-weight:normal;font-stretch:normal;font-family:'Druk Wide';-inkscape-font-specification:'Druk Wide';fill:none;stroke:#000702;stroke-width:0.1;stroke-miterlimit:4;stroke-dasharray:none;stroke-opacity:1"
         x="67.416466"
         y="246.90489">kakoi - Bottom Plate</tspan></text>
    <path
       id="rect3901"
       style="fill:none;fill-opacity:1;stroke:#000000;stroke-width:0.1;stroke-linecap:round;stroke-miterlimit:4;stroke-dasharray:none;stroke-opacity:1"
       d="m 5.00018,137.60601 c -2.76997,0 -5.00023,2.22971 -5.00023,4.9997 v 86.00043 c 0,2.77 2.23026,4.9997 5.00023,4.9997 h 199.99968 c 2.77,0 5.0002,-2.2297 5.0002,-4.9997 v -86.00043 c 0,-2.76999 -2.2302,-4.9997 -5.0002,-4.9997 z m 0,3.99976 c 0.55224,3e-5 0.99991,0.4477 0.99994,0.99994 2.5e-4,0.55244 -0.4475,1.00042 -0.99994,1.00045 -0.55264,2.6e-4 -1.00072,-0.44781 -1.00047,-1.00045 3e-5,-0.55244 0.44803,-1.0002 1.00047,-0.99994 z m 52.00019,0 c 0.55224,3e-5 0.99991,0.4477 0.99994,0.99994 -3e-5,0.55224 -0.4477,0.99991 -0.99994,0.99994 -0.55224,-3e-5 -0.99991,-0.4477 -0.99994,-0.99994 3e-5,-0.55224 0.4477,-0.99991 0.99994,-0.99994 z m 35.4999,0 c 0.55224,3e-5 0.99991,0.4477 0.99994,0.99994 -3e-5,0.55224 -0.4477,0.99991 -0.99994,0.99994 -0.55224,-3e-5 -0.99991,-0.4477 -0.99994,-0.99994 3e-5,-0.55224 0.4477,-0.99991 0.99994,-0.99994 z m 19.9998,0 c 0.55224,3e-5 0.99991,0.4477 0.99994,0.99994 -3e-5,0.55224 -0.4477,0.99991 -0.99994,0.99994 -0.55224,-3e-5 -0.99991,-0.4477 -0.99994,-0.99994 3e-5,-0.55224 0.4477,-0.99991 0.99994,-0.99994 z m 92.49979,0 c 0.55224,3e-5 0.9999,0.4477 0.99994,0.99994 2.5e-4,0.55244 -0.44751,1.00042 -0.99994,1.00045 -0.55244,-3e-5 -1.00019,-0.44801 -0.99994,-1.00045 3e-5,-0.55224 0.4477,-0.99991 0.99994,-0.99994 z m 0,32.95613 c 0.55224,3e-5 0.9999,0.4477 0.99994,0.99994 -4e-5,0.55224 -0.4477,0.99991 -0.99994,0.99994 -0.55224,-3e-5 -0.99991,-0.4477 -0.99994,-0.99994 3e-5,-0.55224 0.4477,-0.99991 0.99994,-0.99994 z M 4.99968,174.6058 c 0.55224,3e-5 0.99991,0.4477 0.99994,0.99994 -3e-5,0.55224 -0.4477,0.99991 -0.99994,0.99994 -0.55224,-3e-5 -0.99991,-0.4477 -0.99994,-0.99994 3e-5,-0.55224 0.4477,-0.99991 0.99994,-0.99994 z m 200.00018,19.97036 c 0.55224,3e-5 0.9999,0.4477 0.99994,0.99994 -4e-5,0.55224 -0.4477,0.99991 -0.99994,0.99994 -0.55224,-3e-5 -0.99991,-0.4477 -0.99994,-0.99994 3e-5,-0.55224 0.4477,-0.99991 0.99994,-0.99994 z m -199.99915,0.0294 c 0.55224,3e-5 0.99991,0.4477 0.99994,0.99994 -3e-5,0.55224 -0.4477,0.99991 -0.99994,0.99994 -0.55224,-3e-5 -0.99991,-0.4477 -0.99994,-0.99994 3e-5,-0.55224 0.4477,-0.99991 0.99994,-0.99994 z m 0,33.00057 c 0.55224,3e-5 0.99991,0.4477 0.99994,0.99994 -3e-5,0.55224 -0.4477,0.99991 -0.99994,0.99994 -0.55244,2.6e-4 -1.00044,-0.4475 -1.00047,-0.99994 3e-5,-0.55244 0.44803,-1.0002 1.00047,-0.99994 z m 92.50029,0 c 0.5421,1.4e-4 0.98538,0.43219 0.99941,0.97411 1.1e-4,0.009 1.1e-4,0.0172 0,0.0258 7e-5,0.52345 -0.40355,0.95837 -0.92554,0.99735 -0.0247,0.002 -0.0496,0.003 -0.0744,0.003 -0.55224,-3e-5 -0.99991,-0.4477 -0.99994,-0.99994 3e-5,-0.55224 0.4477,-0.99991 0.99994,-0.99994 z m 19.99877,0 c 0.55224,3e-5 0.99991,0.4477 0.99994,0.99994 -3e-5,0.55224 -0.4477,0.99991 -0.99994,0.99994 -0.55224,-3e-5 -0.99991,-0.4477 -0.99994,-0.99994 3e-5,-0.55224 0.4477,-0.99991 0.99994,-0.99994 z m 87.50062,0 c 0.55224,3e-5 0.99991,0.4477 0.99994,0.99994 -3e-5,0.55224 -0.4477,0.99991 -0.99994,0.99994 -0.55224,-3e-5 -0.99991,-0.4477 -0.99994,-0.99994 3e-5,-0.55224 0.4477,-0.99991 0.99994,-0.99994 z"
       sodipodi:nodetypes="sssssssssccccccccccccccccccccccccccccccccccccccccccccccscsccccccccccccccccccc" />
    <text
       xml:space="preserve"
       style="font-style:normal;font-weight:normal;font-size:5.73927px;line-height:1.25;font-family:sans-serif;fill:#000000;fill-opacity:1;stroke:none;stroke-width:0.1;stroke-miterlimit:4;stroke-dasharray:none"
       x="59.347069"
       y="127.498"
       id="text161798"><tspan
         sodipodi:role="line"
         id="tspan161796"
         style="font-style:normal;font-variant:normal;font-weight:normal;font-stretch:normal;font-family:'Druk Wide';-inkscape-font-specification:'Druk Wide';fill:none;stroke:#000702;stroke-width:0.1;stroke-miterlimit:4;stroke-dasharray:none;stroke-opacity:1"
         x="59.347069"
         y="127.498">kakoi - Split Middle Plate</tspan></text>
    <g
       id="g1654"
       transform="translate(0,-22.450643)">
      <path
         id="path1009"
         style="fill:none;fill-opacity:1;stroke:#000000;stroke-width:0.1;stroke-linecap:round;stroke-miterlimit:4;stroke-dasharray:none;stroke-opacity:1"
         d="m 102.50042,-78.90531 5.0002,4.99969 -5.0002,5.00022 h 97.49999 v 37.99974 l 4.9997,4.9997 5.0002,-4.9997 v -42.99996 c 0,-2.76999 -2.2302,-4.99969 -5.0002,-4.99969 z m 9.9999,3.99975 a 1,1 0 0 1 0.99994,1.00046 1,1 0 0 1 -0.99994,0.99994 1,1 0 0 1 -0.99994,-0.99994 1,1 0 0 1 0.99994,-1.00046 z m 92.50029,0 a 1,1 0 0 1 1.00047,0.99994 1,1 0 0 1 -1.00047,1.00046 1,1 0 0 1 -0.99994,-1.00046 1,1 0 0 1 0.99994,-0.99994 z m 0,33.00006 a 1,1 0 0 1 1.00044,0.99994 1,1 0 0 1 -1.00044,0.99993 1,1 0 0 1 -0.99994,-0.99993 1,1 0 0 1 0.99994,-0.99994 z" />
      <path
         id="path1011"
         style="fill:none;fill-opacity:1;stroke:#000000;stroke-width:0.1;stroke-linecap:round;stroke-miterlimit:4;stroke-dasharray:none;stroke-opacity:1"
         d="M 199.99988,-30.90566 V 7.09409 h -92.50029 l -5.0002,5.00021 5.0002,4.9997 h 97.49999 c 2.76998,0 5.00023,-2.2297 5.0002,-4.9997 v -42.99996 l -4.99967,4.9997 z m 5.00023,8.99997 a 1,1 0 0 1 0.99994,0.99994 1,1 0 0 1 -0.99994,0.99994 1,1 0 0 1 -1.00047,-0.99994 1,1 0 0 1 1.00047,-0.99994 z m -87.50062,32.99954 a 1,1 0 0 1 0.99994,0.99994 1,1 0 0 1 -0.99994,1.00045 1,1 0 0 1 -0.99994,-1.00045 1,1 0 0 1 0.99994,-0.99994 z m 87.50009,0 a 1,1 0 0 1 0.99994,1.00045 1,1 0 0 1 -0.99994,0.99994 1,1 0 0 1 -1.00044,-0.99994 1,1 0 0 1 1.00044,-1.00045 z" />
      <path
         id="path1013"
         style="fill:none;fill-opacity:1;stroke:#000000;stroke-width:0.1;stroke-linecap:round;stroke-miterlimit:4;stroke-dasharray:none;stroke-opacity:1"
         d="M 4.9999,-35.90535 -3e-4,-30.90566 V 12.0943 c 0,2.76999 2.2302,4.9997 5.0002,4.9997 h 102.49969 l -5.0002,-4.9997 5.0002,-5.00021 H 9.9996 v -37.99975 z m 0,13.99966 a 1,1 0 0 1 1.00047,0.99994 1,1 0 0 1 -1.00047,0.99994 1,1 0 0 1 -0.99994,-0.99994 1,1 0 0 1 0.99994,-0.99994 z m 0,32.99954 A 1,1 0 0 1 5.99984,12.0943 1,1 0 0 1 4.9999,13.09424 1,1 0 0 1 3.99943,12.0943 1,1 0 0 1 4.9999,11.09385 Z m 92.50029,0 a 1,1 0 0 1 0.99994,0.99994 1,1 0 0 1 -0.99994,1.00045 1,1 0 0 1 -0.99994,-1.00045 1,1 0 0 1 0.99994,-0.99994 z" />
      <path
         id="path1314"
         style="fill:none;fill-opacity:1;stroke:#000000;stroke-width:0.377953;stroke-linecap:round;stroke-miterlimit:4;stroke-dasharray:none;stroke-opacity:1"
         d="m 19.089844,-415.4668 c -10.469216,0 -18.89855114,8.4272 -18.89843775,18.89649 v 162.51953 l 18.89648475,-18.89649 18.898437,18.89649 v -143.6211 H 387.59375 l 18.89844,-18.89843 -18.89844,-18.89649 z m 0,15.11719 a 3.7795276,3.7795276 0 0 1 3.78125,3.7793 3.7795276,3.7795276 0 0 1 -3.78125,3.78125 3.7795276,3.7795276 0 0 1 -3.779297,-3.78125 3.7795276,3.7795276 0 0 1 3.779297,-3.7793 z m 196.535156,0 a 3.7795276,3.7795276 0 0 1 3.7793,3.7793 3.7795276,3.7795276 0 0 1 -3.7793,3.78125 3.7795276,3.7795276 0 0 1 -3.7793,-3.78125 3.7795276,3.7795276 0 0 1 3.7793,-3.7793 z m 134.17383,0 a 3.7795276,3.7795276 0 0 1 3.77929,3.78125 3.7795276,3.7795276 0 0 1 -3.77929,3.7793 3.7795276,3.7795276 0 0 1 -3.7793,-3.7793 3.7795276,3.7795276 0 0 1 3.7793,-3.78125 z M 19.087891,-275.625 a 3.7795276,3.7795276 0 0 1 3.78125,3.7793 3.7795276,3.7795276 0 0 1 -3.78125,3.77929 3.7795276,3.7795276 0 0 1 -3.779297,-3.77929 3.7795276,3.7795276 0 0 1 3.779297,-3.7793 z"
         transform="matrix(0.26458333,0,0,0.26458333,-0.050304,31.02029)" />
    </g>
    <text
       xml:space="preserve"
       style="font-style:normal;font-weight:normal;font-size:5.73927px;line-height:1.25;font-family:sans-serif;fill:#000000;fill-opacity:1;stroke:none;stroke-width:0.1;stroke-miterlimit:4;stroke-dasharray:none"
       x="59.347069"
       y="8.0170183"
       id="text1648"><tspan
         sodipodi:role="line"
         id="tspan1646"
         style="font-style:normal;font-variant:normal;font-weight:normal;font-stretch:normal;font-family:'Druk Wide';-inkscape-font-specification:'Druk Wide';fill:none;stroke:#000702;stroke-width:0.1;stroke-miterlimit:4;stroke-dasharray:none;stroke-opacity:1"
         x="59.347069"
         y="8.0170183">kakoi - Split Top Plate</tspan></text>
    <path
       id="path11551"
       style="fill:none;fill-opacity:1;stroke:#000e03;stroke-width:0.1;stroke-linecap:butt;stroke-linejoin:miter;stroke-opacity:1;stroke-miterlimit:4;stroke-dasharray:none"
       d="m 91.661543,176.09617 3.83439,3.83439 5.176947,5.17694 h -7.320997 -5.42396 -2.11978 -8.2336 l 4.73305,-4.73304 h 6.31071 l -0.44389,-0.4439 -3.83439,-3.83439 z m 31.494697,4.27829 4.46228,4.46226 -4.48654,4.48603 -4.21577,-4.21525 H 103.2877 l -4.733047,-4.73304 z m -36.288207,5.79293 4.21576,4.21524 h 15.628517 l 4.73302,4.73305 H 86.843743 l -4.46225,-4.46226 z m 45.557437,4.21524 -4.73305,4.73305 h -13.63226 l -4.73303,-4.73305 h 12.74496 2.11976 z" />
  </g>
</svg>
