<?xml version="1.0" encoding="UTF-8" standalone="no"?>
<!-- Created with Inkscape (http://www.inkscape.org/) -->

<svg
   width="433.19949mm"
   height="227.46329mm"
   viewBox="0 0 433.19949 227.46329"
   version="1.1"
   id="svg941"
   inkscape:version="1.1 (c68e22c387, 2021-05-23)"
   sodipodi:docname="kakoi_razorlab_template.svg"
   xmlns:inkscape="http://www.inkscape.org/namespaces/inkscape"
   xmlns:sodipodi="http://sodipodi.sourceforge.net/DTD/sodipodi-0.dtd"
   xmlns="http://www.w3.org/2000/svg"
   xmlns:svg="http://www.w3.org/2000/svg">
  <sodipodi:namedview
     id="namedview943"
     pagecolor="#ffffff"
     bordercolor="#999999"
     borderopacity="1"
     inkscape:pageshadow="0"
     inkscape:pageopacity="0"
     inkscape:pagecheckerboard="0"
     inkscape:document-units="mm"
     showgrid="false"
     inkscape:zoom="0.67081229"
     inkscape:cx="980.15497"
     inkscape:cy="496.41309"
     inkscape:window-width="2157"
     inkscape:window-height="1368"
     inkscape:window-x="1274"
     inkscape:window-y="0"
     inkscape:window-maximized="0"
     inkscape:current-layer="layer1"
     showguides="false"
     inkscape:guide-bbox="true"
     inkscape:snap-intersection-paths="true">
    <sodipodi:guide
       position="334.67989,318.99404"
       orientation="0,-1"
       id="guide6917" />
    <sodipodi:guide
       position="330.43985,314.26098"
       orientation="0,-1"
       id="guide6919" />
    <sodipodi:guide
       position="329.13333,313.64469"
       orientation="0,-1"
       id="guide6921" />
    <sodipodi:guide
       position="324.40026,308.98558"
       orientation="0,-1"
       id="guide6923" />
    <sodipodi:guide
       position="305.83776,314.26098"
       orientation="0.70710678,-0.70710678"
       id="guide6925" />
    <sodipodi:guide
       position="324.40026,308.98558"
       orientation="0.70710678,-0.70710678"
       id="guide6927" />
    <sodipodi:guide
       position="330.43985,314.26098"
       orientation="0.70710678,-0.70710678"
       id="guide6929" />
    <sodipodi:guide
       position="306.4787,303.80878"
       orientation="0.70710678,-0.70710678"
       id="guide6931" />
    <sodipodi:guide
       position="314.19459,313.64469"
       orientation="0.70710678,-0.70710678"
       id="guide6933" />
    <sodipodi:guide
       position="306.4787,303.80878"
       orientation="0,-1"
       id="guide6968" />
    <sodipodi:guide
       position="306.4787,303.80878"
       orientation="-0.70710678,-0.70710678"
       id="guide6970" />
    <sodipodi:guide
       position="372.20767,375.5406"
       orientation="0,-1"
       id="guide9948" />
    <sodipodi:guide
       position="401.66529,365.53242"
       orientation="0,-1"
       id="guide9950" />
    <sodipodi:guide
       position="376.44773,370.80755"
       orientation="0,-1"
       id="guide9952" />
    <sodipodi:guide
       position="405.90532,360.79938"
       orientation="0,-1"
       id="guide9954" />
  </sodipodi:namedview>
  <defs
     id="defs938" />
  <g
     inkscape:label="Layer 1"
     inkscape:groupmode="layer"
     id="layer1"
     transform="translate(262.81591,180.56143)">
    <path
       style="fill:none;fill-opacity:1;stroke:#0000ff;stroke-width:0.01;stroke-linecap:round;stroke-miterlimit:4;stroke-dasharray:none;stroke-opacity:1"
       d="m -251.01644,-174.6475 c -2.76997,0 -5.00023,2.22971 -5.00023,4.9997 v 86.000427 c 0,2.77 2.23026,4.9997 5.00023,4.9997 h 199.99968 c 2.77,0 5.0002,-2.2297 5.0002,-4.9997 V -169.6478 c 0,-2.76999 -2.2302,-4.9997 -5.0002,-4.9997 z m 0,3.99976 c 0.55224,3e-5 0.99991,0.4477 0.99994,0.99994 2.5e-4,0.55244 -0.4475,1.00042 -0.99994,1.00045 -0.55264,2.6e-4 -1.00072,-0.44781 -1.00047,-1.00045 3e-5,-0.55244 0.44803,-1.0002 1.00047,-0.99994 z m 52.00019,0 c 0.55224,3e-5 0.99991,0.4477 0.99994,0.99994 -3e-5,0.55224 -0.4477,0.99991 -0.99994,0.99994 -0.55224,-3e-5 -0.99991,-0.4477 -0.99994,-0.99994 3e-5,-0.55224 0.4477,-0.99991 0.99994,-0.99994 z m 35.4999,0 c 0.55224,3e-5 0.99991,0.4477 0.99994,0.99994 -3e-5,0.55224 -0.4477,0.99991 -0.99994,0.99994 -0.55224,-3e-5 -0.99991,-0.4477 -0.99994,-0.99994 3e-5,-0.55224 0.4477,-0.99991 0.99994,-0.99994 z m 19.9998,0 c 0.55224,3e-5 0.99991,0.4477 0.99994,0.99994 -3e-5,0.55224 -0.4477,0.99991 -0.99994,0.99994 -0.55224,-3e-5 -0.99991,-0.4477 -0.99994,-0.99994 3e-5,-0.55224 0.4477,-0.99991 0.99994,-0.99994 z m 92.49979,0 c 0.55224,3e-5 0.9999,0.4477 0.99994,0.99994 2.5e-4,0.55244 -0.44751,1.00042 -0.99994,1.00045 -0.55244,-3e-5 -1.00019,-0.44801 -0.99994,-1.00045 3e-5,-0.55224 0.4477,-0.99991 0.99994,-0.99994 z m 0,32.95613 c 0.55224,3e-5 0.9999,0.4477 0.99994,0.99994 -4e-5,0.55224 -0.4477,0.99991 -0.99994,0.99994 -0.55224,-3e-5 -0.99991,-0.4477 -0.99994,-0.99994 3e-5,-0.55224 0.4477,-0.99991 0.99994,-0.99994 z m -200.00018,0.0439 c 0.55224,3e-5 0.99991,0.4477 0.99994,0.99994 -3e-5,0.55224 -0.4477,0.99991 -0.99994,0.99994 -0.55224,-3e-5 -0.99991,-0.4477 -0.99994,-0.99994 3e-5,-0.55224 0.4477,-0.99991 0.99994,-0.99994 z m 200.00018,19.97036 c 0.55224,3e-5 0.9999,0.4477 0.99994,0.99994 -4e-5,0.55224 -0.4477,0.99991 -0.99994,0.99994 -0.55224,-3e-5 -0.99991,-0.4477 -0.99994,-0.99994 3e-5,-0.55224 0.4477,-0.99991 0.99994,-0.99994 z m -199.99915,0.0294 c 0.55224,3e-5 0.99991,0.4477 0.99994,0.99994 -3e-5,0.55224 -0.4477,0.99991 -0.99994,0.99994 -0.55224,-3e-5 -0.99991,-0.4477 -0.99994,-0.99994 3e-5,-0.55224 0.4477,-0.99991 0.99994,-0.99994 z m 0,33.000567 c 0.55224,3e-5 0.99991,0.4477 0.99994,0.99994 -3e-5,0.55224 -0.4477,0.99991 -0.99994,0.99994 -0.55244,2.6e-4 -1.00044,-0.4475 -1.00047,-0.99994 3e-5,-0.55244 0.44803,-1.0002 1.00047,-0.99994 z m 92.50029,0 c 0.5421,1.4e-4 0.98538,0.43219 0.99941,0.97411 1.1e-4,0.009 1.1e-4,0.0172 0,0.0258 7e-5,0.52345 -0.40355,0.95837 -0.92554,0.99735 -0.0247,0.002 -0.0496,0.003 -0.0744,0.003 -0.55224,-3e-5 -0.99991,-0.4477 -0.99994,-0.99994 3e-5,-0.55224 0.4477,-0.99991 0.99994,-0.99994 z m 19.99877,0 c 0.55224,3e-5 0.99991,0.4477 0.99994,0.99994 -3e-5,0.55224 -0.4477,0.99991 -0.99994,0.99994 -0.55224,-3e-5 -0.99991,-0.4477 -0.99994,-0.99994 3e-5,-0.55224 0.4477,-0.99991 0.99994,-0.99994 z m 87.50062,0 c 0.55224,3e-5 0.99991,0.4477 0.99994,0.99994 -3e-5,0.55224 -0.4477,0.99991 -0.99994,0.99994 -0.55224,-3e-5 -0.99991,-0.4477 -0.99994,-0.99994 3e-5,-0.55224 0.4477,-0.99991 0.99994,-0.99994 z"
       sodipodi:nodetypes="sssssssssccccccccccccccccccccccccccccccccccccccccccccccscsccccccccccccccccccc"
       id="path13530" />
    <path
       style="fill:none;fill-opacity:1;stroke:#0000ff;stroke-width:0.01;stroke-linecap:round;stroke-miterlimit:4;stroke-dasharray:none;stroke-opacity:1"
       d="m 90.187303,9.30987 -5.0002,-4.99969 5.0002,-5.00022 H -7.312714 v -37.99972 l -4.9997,-4.9997 -5.000203,4.9997 V 4.31018 c 0,2.76999 2.2302,4.99969 5.000203,4.99969 z M 80.187402,5.31012 a 1,1 0 0 1 -0.99994,-1.00046 1,1 0 0 1 0.99994,-0.99994 1,1 0 0 1 0.99994,0.99994 1,1 0 0 1 -0.99994,1.00046 z m -92.500316,0 a 1,1 0 0 1 -1.000473,-0.99994 1,1 0 0 1 1.000473,-1.00046 1,1 0 0 1 0.99994,1.00046 1,1 0 0 1 -0.99994,0.99994 z m 0,-33.00006 a 1,1 0 0 1 -1.000443,-0.99994 1,1 0 0 1 1.000443,-0.99992 1,1 0 0 1 0.99994,0.99992 1,1 0 0 1 -0.99994,0.99994 z"
       id="path1761" />
    <path
       style="fill:none;fill-opacity:1;stroke:#0000ff;stroke-width:0.01;stroke-linecap:round;stroke-miterlimit:4;stroke-dasharray:none;stroke-opacity:1"
       d="m -19.66148,-14.92331 v -37.99975 h 92.500261 l 5.000204,-5.00021 -5.000204,-4.9997 H -24.66118 c -2.76997,0 -5.00021,2.2297 -5.00018,4.9997 v 42.99996 l 4.99965,-4.9997 z m -5.00023,-8.99997 a 1,1 0 0 1 -0.99994,-0.99994 1,1 0 0 1 0.99994,-0.99994 1,1 0 0 1 1.00047,0.99994 1,1 0 0 1 -1.00047,0.99994 z m 87.500589,-32.99954 a 1,1 0 0 1 -0.99994,-0.99994 1,1 0 0 1 0.99994,-1.00045 1,1 0 0 1 0.999939,1.00045 1,1 0 0 1 -0.999939,0.99994 z m -87.500059,0 a 1,1 0 0 1 -0.99994,-1.00045 1,1 0 0 1 0.99994,-0.99994 1,1 0 0 1 1.00044,0.99994 1,1 0 0 1 -1.00044,1.00045 z"
       id="path1765" />
    <path
       style="fill:none;fill-opacity:1;stroke:#0000ff;stroke-width:0.01;stroke-linecap:round;stroke-miterlimit:4;stroke-dasharray:none;stroke-opacity:1"
       d="m 130.07253,-62.92297 c -2.76997,0 -5.00023,2.2297 -5.00023,4.9997 v 42.99995 l 4.9997,-4.99969 5.00024,4.99969 v -37.99973 h 20.00033 v -9.99992 z m 0,3.99975 c 0.55244,-2.5e-4 1.00043,0.44751 1.00046,0.99995 2.5e-4,0.55264 -0.44782,1.00071 -1.00046,1.00046 -0.55244,-4e-5 -1.00019,-0.44802 -0.99994,-1.00046 3e-5,-0.55225 0.4477,-0.99991 0.99994,-0.99995 z m -0.001,33.00006 c 0.55243,-2.5e-4 1.00042,0.4475 1.00045,0.99994 -4e-5,0.55243 -0.44802,1.00017 -1.00045,0.99993 -0.55223,-4e-5 -0.9999,-0.4477 -0.99994,-0.99993 3e-5,-0.55224 0.4477,-0.99991 0.99994,-0.99994 z"
       sodipodi:nodetypes="ssccccccscccccccccc"
       id="path1757" />
    <path
       style="fill:none;fill-opacity:1;stroke:#0000ff;stroke-width:0.01;stroke-linecap:round;stroke-miterlimit:4;stroke-dasharray:none;stroke-opacity:1"
       d="m 110.83905,-40.80644 v -9.99991 H 55.339085 l -5.0002,5.00022 5.0002,4.99969 z m -9.99994,-3.99975 c -0.55243,-5e-5 -1.000155,-0.44803 -0.999905,-1.00046 3e-5,-0.55222 0.447675,-0.99989 0.999905,-0.99994 0.55224,4e-5 0.99991,0.44771 0.99994,0.99994 2.5e-4,0.55244 -0.4475,1.00043 -0.99994,1.00046 z m -35.500135,0 c -0.55244,-3e-5 -1.00019,-0.44802 -0.99994,-1.00046 3e-5,-0.55223 0.4477,-0.9999 0.99994,-0.99994 0.55224,4e-5 0.99991,0.44771 0.99994,0.99994 2.5e-4,0.55244 -0.4475,1.00043 -0.99994,1.00046 z"
       sodipodi:nodetypes="cccccccccccccccc"
       id="path1759" />
    <path
       style="fill:none;fill-opacity:1;stroke:#0000ff;stroke-width:0.01;stroke-linecap:round;stroke-miterlimit:4;stroke-dasharray:none;stroke-opacity:1"
       d="m -217.95398,-38.47498 5.0002,4.99969 -5.0002,5.00022 h 97.50024 V 9.52466 l 4.9997,4.9997 5.0002,-4.9997 v -42.99995 c 0,-2.76999 -2.2302,-4.99969 -5.0002,-4.99969 z m 9.9999,3.99975 a 1,1 0 0 1 0.99994,1.00046 1,1 0 0 1 -0.99994,0.99994 1,1 0 0 1 -0.99994,-0.99994 1,1 0 0 1 0.99994,-1.00046 z m 92.50054,0 a 1,1 0 0 1 1.00047,0.99994 1,1 0 0 1 -1.00047,1.00046 1,1 0 0 1 -0.99994,-1.00046 1,1 0 0 1 0.99994,-0.99994 z m 0,33.00006 a 1,1 0 0 1 1.00044,0.99994 1,1 0 0 1 -1.00044,0.99993 1,1 0 0 1 -0.99994,-0.99993 1,1 0 0 1 0.99994,-0.99994 z"
       id="path1763" />
    <path
       style="fill:none;fill-opacity:1;stroke:#0000ff;stroke-width:0.01;stroke-linecap:round;stroke-miterlimit:4;stroke-dasharray:none;stroke-opacity:1"
       d="m 122.95563,-57.92274 c 0,-2.76997 -2.2297,-5.00023 -4.9997,-5.00023 H 74.955962 l 4.99969,4.9997 -4.99969,5.00024 h 37.999748 v 20.00033 h 9.99992 z m -3.99975,0 c 2.5e-4,0.55244 -0.44751,1.00043 -0.99995,1.00046 -0.55264,2.5e-4 -1.00071,-0.44782 -1.00046,-1.00046 4e-5,-0.55244 0.44802,-1.00019 1.00046,-0.99994 0.55225,3e-5 0.99991,0.4477 0.99995,0.99994 z m -33.000078,-0.001 c 2.49e-4,0.55243 -0.4475,1.00042 -0.999941,1.00045 -0.55243,-4e-5 -1.00017,-0.44802 -0.99993,-1.00045 4e-5,-0.55223 0.447701,-0.9999 0.99993,-0.99994 0.55224,3e-5 0.99991,0.4477 0.999941,0.99994 z"
       sodipodi:nodetypes="ssccccccscccccccccc"
       id="path1767" />
    <path
       style="fill:none;fill-opacity:1;stroke:#0000ff;stroke-width:0.01;stroke-linecap:round;stroke-miterlimit:4;stroke-dasharray:none;stroke-opacity:1"
       d="m -103.33476,-40.80644 v -9.99991 h -55.49996 l -5.0002,5.00022 5.0002,4.99969 z m -9.99993,-3.99975 c -0.55243,-5e-5 -1.00016,-0.44803 -0.99991,-1.00046 3e-5,-0.55222 0.44768,-0.99989 0.99991,-0.99994 0.55224,4e-5 0.99991,0.44771 0.99994,0.99994 2.5e-4,0.55244 -0.4475,1.00043 -0.99994,1.00046 z m -35.50014,0 c -0.55244,-3e-5 -1.00019,-0.44802 -0.99994,-1.00046 3e-5,-0.55223 0.4477,-0.9999 0.99994,-0.99994 0.55224,4e-5 0.99991,0.44771 0.99994,0.99994 2.5e-4,0.55244 -0.4475,1.00043 -0.99994,1.00046 z"
       sodipodi:nodetypes="cccccccccccccccc"
       id="path1769" />
    <path
       style="fill:none;fill-opacity:1;stroke:#0000ff;stroke-width:0.01;stroke-linecap:round;stroke-miterlimit:4;stroke-dasharray:none;stroke-opacity:1"
       d="m 1.096663,39.37987 -5.0002,-4.99969 5.0002,-5.00022 H -96.40342 V -8.61977 l -4.9997,-4.9997 -5.0002,4.9997 v 42.99995 c 0,2.76999 2.2302,4.99969 5.0002,4.99969 z m -9.9999,-3.99975 a 1,1 0 0 1 -0.99994,-1.00046 1,1 0 0 1 0.99994,-0.99994 1,1 0 0 1 0.99994,0.99994 1,1 0 0 1 -0.99994,1.00046 z m -92.500383,0 a 1,1 0 0 1 -1.00047,-0.99994 1,1 0 0 1 1.00047,-1.00046 1,1 0 0 1 0.99994,1.00046 1,1 0 0 1 -0.99994,0.99994 z m 0,-33.00006 a 1,1 0 0 1 -1.00044,-0.99994 1,1 0 0 1 1.00044,-0.99993 1,1 0 0 1 0.99994,0.99993 1,1 0 0 1 -0.99994,0.99994 z"
       id="path1773" />
    <path
       style="fill:none;fill-opacity:1;stroke:#0000ff;stroke-width:0.01;stroke-linecap:round;stroke-miterlimit:4;stroke-dasharray:none;stroke-opacity:1"
       d="m -123.35396,2.11555 -5.0002,-4.99969 5.0002,-5.00022 h -97.50003 v -37.99972 l -4.99971,-4.9997 -5.0002,4.9997 v 42.99994 c 0,2.76999 2.2302,4.99969 5.0002,4.99969 z m -9.99991,-3.99975 a 1,1 0 0 1 -0.99993,-1.00046 1,1 0 0 1 0.99993,-0.99994 1,1 0 0 1 0.99994,0.99994 1,1 0 0 1 -0.99994,1.00046 z m -92.50033,0 a 1,1 0 0 1 -1.00047,-0.99994 1,1 0 0 1 1.00047,-1.00046 1,1 0 0 1 0.99994,1.00046 1,1 0 0 1 -0.99994,0.99994 z m 0,-33.00006 a 1,1 0 0 1 -1.00044,-0.99994 1,1 0 0 1 1.00044,-0.99992 1,1 0 0 1 0.99994,0.99992 1,1 0 0 1 -0.99994,0.99994 z"
       id="path1771" />
    <path
       style="fill:none;fill-opacity:1;stroke:#0000ff;stroke-width:0.01;stroke-linecap:round;stroke-miterlimit:4;stroke-dasharray:none;stroke-opacity:1"
       d="m -233.83479,-14.92328 v -37.99975 h 92.50029 l 5.0002,-5.00021 -5.0002,-4.9997 h -97.49999 c -2.76998,0 -5.00023,2.2297 -5.0002,4.9997 v 42.99996 l 4.99967,-4.9997 z m -5.00023,-8.99997 a 1,1 0 0 1 -0.99994,-0.99994 1,1 0 0 1 0.99994,-0.99994 1,1 0 0 1 1.00047,0.99994 1,1 0 0 1 -1.00047,0.99994 z m 87.50063,-32.99954 a 1,1 0 0 1 -0.99995,-0.99994 1,1 0 0 1 0.99995,-1.00045 1,1 0 0 1 0.99994,1.00045 1,1 0 0 1 -0.99994,0.99994 z m -87.5001,0 a 1,1 0 0 1 -0.99994,-1.00045 1,1 0 0 1 0.99994,-0.99994 1,1 0 0 1 1.00044,0.99994 1,1 0 0 1 -1.00044,1.00045 z"
       id="path1775" />
    <path
       style="fill:none;fill-opacity:1;stroke:#0000ff;stroke-width:0.01;stroke-linecap:round;stroke-miterlimit:4;stroke-dasharray:none;stroke-opacity:1"
       d="m -91.21816,-57.92274 c 0,-2.76997 -2.2297,-5.00023 -4.9997,-5.00023 h -42.99996 l 4.99969,4.9997 -4.99969,5.00024 h 37.99974 v 20.00033 h 9.99992 z m -3.99975,0 c 2.5e-4,0.55244 -0.44751,1.00043 -0.99995,1.00046 -0.55264,2.5e-4 -1.00071,-0.44782 -1.00046,-1.00046 4e-5,-0.55244 0.44802,-1.00019 1.00046,-0.99994 0.55225,3e-5 0.99991,0.4477 0.99995,0.99994 z m -33.00007,-0.001 c 2.5e-4,0.55243 -0.4475,1.00042 -0.99994,1.00045 -0.55243,-4e-5 -1.00017,-0.44802 -0.99993,-1.00045 4e-5,-0.55223 0.4477,-0.9999 0.99993,-0.99994 0.55224,3e-5 0.99991,0.4477 0.99994,0.99994 z"
       sodipodi:nodetypes="ssccccccscccccccccc"
       id="path1777" />
    <path
       style="fill:none;fill-opacity:1;stroke:#0000ff;stroke-width:0.01;stroke-linecap:round;stroke-miterlimit:4;stroke-dasharray:none;stroke-opacity:1"
       d="m 48.187247,-40.80644 v -9.99991 H -7.312714 l -5.0002,5.00022 5.0002,4.99969 z m -9.99993,-3.99975 c -0.55243,-5e-5 -1.00016,-0.44803 -0.99991,-1.00046 3e-5,-0.55222 0.44768,-0.99989 0.99991,-0.99994 0.55224,4e-5 0.99991,0.44771 0.99994,0.99994 2.5e-4,0.55244 -0.4475,1.00043 -0.99994,1.00046 z m -35.50014,0 c -0.55244,-3e-5 -1.00019,-0.44802 -0.99994,-1.00046 3e-5,-0.55223 0.4477,-0.9999 0.99994,-0.99994 0.55224,4e-5 0.99991,0.44771 0.99994,0.99994 2.5e-4,0.55244 -0.4475,1.00043 -0.99994,1.00046 z"
       sodipodi:nodetypes="cccccccccccccccc"
       id="path1779" />
    <path
       style="fill:none;fill-opacity:1;stroke:#0000ff;stroke-width:0.01;stroke-linecap:round;stroke-miterlimit:4;stroke-dasharray:none;stroke-opacity:1"
       d="m -3.079397,-38.68976 5.0002,4.99968 -5.0002,5.00022 H 94.420638 V 9.30987 l 4.999707,4.9997 5.000205,-4.9997 v -42.99995 c 0,-2.76999 -2.2302,-4.99968 -5.000205,-4.99968 z m 9.9999,3.99974 a 1,1 0 0 1 0.999939,1.00046 1,1 0 0 1 -0.999939,0.99994 1,1 0 0 1 -0.99994,-0.99994 1,1 0 0 1 0.99994,-1.00046 z m 92.500342,0 a 1,1 0 0 1 1.000475,0.99994 1,1 0 0 1 -1.000475,1.00046 1,1 0 0 1 -0.99995,-1.00046 1,1 0 0 1 0.99995,-0.99994 z m 0,33.00006 a 1,1 0 0 1 1.000455,0.99994 1,1 0 0 1 -1.000455,0.99993 1,1 0 0 1 -0.99995,-0.99993 1,1 0 0 1 0.99995,-0.99994 z"
       id="path1783" />
    <path
       style="fill:none;fill-opacity:1;stroke:#0000ff;stroke-width:0.01;stroke-linecap:round;stroke-miterlimit:4;stroke-dasharray:none;stroke-opacity:1"
       d="m 62.833668,-75.03956 5.0002,4.99969 -5.0002,5.00022 h 97.500022 v 37.99972 l 4.9997,4.9997 5.0002,-4.9997 v -42.99994 c 0,-2.76999 -2.2302,-4.99969 -5.0002,-4.99969 z m 9.999899,3.99975 a 1,1 0 0 1 0.99994,1.00046 1,1 0 0 1 -0.99994,0.99994 1,1 0 0 1 -0.999939,-0.99994 1,1 0 0 1 0.999939,-1.00046 z m 92.500323,0 a 1,1 0 0 1 1.00047,0.99994 1,1 0 0 1 -1.00047,1.00046 1,1 0 0 1 -0.99994,-1.00046 1,1 0 0 1 0.99994,-0.99994 z m 0,33.00006 a 1,1 0 0 1 1.00044,0.99994 1,1 0 0 1 -1.00044,0.99992 1,1 0 0 1 -0.99994,-0.99992 1,1 0 0 1 0.99994,-0.99994 z"
       id="path1781" />
    <path
       style="fill:none;fill-opacity:1;stroke:#0000ff;stroke-width:0.01;stroke-linecap:round;stroke-miterlimit:4;stroke-dasharray:none;stroke-opacity:1"
       d="M -31.78329,-27.0399 V -65.03965 H 60.717 l 5.0002,-5.00021 -5.0002,-4.9997 h -97.49999 c -2.76999,0 -5.00023,2.2297 -5.00021,4.9997 v 42.99996 l 4.99967,-4.9997 z m -5.00023,-8.99997 a 1,1 0 0 1 -0.99995,-0.99994 1,1 0 0 1 0.99994,-0.99994 1,1 0 0 1 1.00047,0.99994 1,1 0 0 1 -1.00046,0.99994 z M 50.7171,-69.03941 a 1,1 0 0 1 -0.99994,-0.99994 1,1 0 0 1 0.99994,-1.00045 1,1 0 0 1 0.99994,1.00045 1,1 0 0 1 -0.99994,0.99994 z m -87.50009,0 a 1,1 0 0 1 -0.99995,-1.00045 1,1 0 0 1 0.99994,-0.99994 1,1 0 0 1 1.00044,0.99994 1,1 0 0 1 -1.00043,1.00045 z"
       id="path1785" />
    <path
       style="fill:none;fill-opacity:1;stroke:#0000ff;stroke-width:0.01;stroke-linecap:round;stroke-miterlimit:4;stroke-dasharray:none;stroke-opacity:1"
       d="m 15.17881,26.44444 -5.0002,-4.99969 5.0002,-5.00022 H -82.32124 V -21.5552 l -4.9997,-4.9997 -5.0002,4.9997 v 42.99995 c 0,2.76999 2.2302,4.99969 5.0002,4.99969 z m -9.9999,-3.99975 a 1,1 0 0 1 -0.99994,-1.00046 1,1 0 0 1 0.99994,-0.99994 1,1 0 0 1 0.99994,0.99994 1,1 0 0 1 -0.99994,1.00046 z m -92.50035,0 a 1,1 0 0 1 -1.00047,-0.99994 1,1 0 0 1 1.00047,-1.00046 1,1 0 0 1 0.99994,1.00046 1,1 0 0 1 -0.99994,0.99994 z m 0,-33.00006 a 1,1 0 0 1 -1.00044,-0.99994 1,1 0 0 1 1.00044,-0.99993 1,1 0 0 1 0.99994,0.99993 1,1 0 0 1 -0.99994,0.99994 z"
       id="path1789" />
    <path
       style="fill:none;fill-opacity:1;stroke:#0000ff;stroke-width:0.01;stroke-linecap:round;stroke-miterlimit:4;stroke-dasharray:none;stroke-opacity:1"
       d="m -151.39979,-75.03953 5.0002,4.99969 -5.0002,5.00022 h 97.50002 v 37.99972 l 4.9997,4.9997 5.0002,-4.9997 v -42.99994 c 0,-2.76999 -2.2302,-4.99969 -5.0002,-4.99969 z m 9.9999,3.99975 a 1,1 0 0 1 0.99994,1.00046 1,1 0 0 1 -0.99994,0.99994 1,1 0 0 1 -0.99994,-0.99994 1,1 0 0 1 0.99994,-1.00046 z m 92.50032,0 a 1,1 0 0 1 1.00047,0.99994 1,1 0 0 1 -1.00047,1.00046 1,1 0 0 1 -0.99994,-1.00046 1,1 0 0 1 0.99994,-0.99994 z m 0,33.00006 a 1,1 0 0 1 1.00044,0.99994 1,1 0 0 1 -1.00044,0.99992 1,1 0 0 1 -0.99994,-0.99992 1,1 0 0 1 0.99994,-0.99994 z"
       id="path1787" />
    <path
       style="fill:none;fill-opacity:1;stroke:#0000ff;stroke-width:0.01;stroke-linecap:round;stroke-miterlimit:4;stroke-dasharray:none;stroke-opacity:1"
       d="m -246.01677,-27.03987 v -37.99975 h 92.5003 l 5.0002,-5.00021 -5.0002,-4.9997 h -97.5 c -2.76998,0 -5.00023,2.2297 -5.0002,4.9997 v 42.99996 l 4.99967,-4.9997 z m -5.00023,-8.99997 a 1,1 0 0 1 -0.99994,-0.99994 1,1 0 0 1 0.99994,-0.99994 1,1 0 0 1 1.00047,0.99994 1,1 0 0 1 -1.00047,0.99994 z m 87.50063,-32.99954 a 1,1 0 0 1 -0.99994,-0.99994 1,1 0 0 1 0.99994,-1.00045 1,1 0 0 1 0.99994,1.00045 1,1 0 0 1 -0.99994,0.99994 z m -87.5001,0 a 1,1 0 0 1 -0.99994,-1.00045 1,1 0 0 1 0.99994,-0.99994 1,1 0 0 1 1.00044,0.99994 1,1 0 0 1 -1.00044,1.00045 z"
       id="path1791" />
    <path
       style="fill:none;fill-opacity:1;stroke:#0000ff;stroke-width:0.01;stroke-linecap:round;stroke-miterlimit:4;stroke-dasharray:none;stroke-opacity:1"
       d="M 109.79576,-21.55521 V 16.44454 H 17.295474 l -5.000196,5.00021 5.000196,4.9997 h 97.499986 c 2.76998,0 5.00023,-2.2297 5.0002,-4.9997 v -42.99996 l -4.99967,4.9997 z m 5.00023,8.99997 a 1,1 0 0 1 0.99994,0.99994 1,1 0 0 1 -0.99994,0.99994 1,1 0 0 1 -1.00047,-0.99994 1,1 0 0 1 1.00047,-0.99994 z M 27.295375,20.4443 a 1,1 0 0 1 0.99994,0.99994 1,1 0 0 1 -0.99994,1.00045 1,1 0 0 1 -0.99994,-1.00045 1,1 0 0 1 0.99994,-0.99994 z m 87.500085,0 a 1,1 0 0 1 0.99994,1.00045 1,1 0 0 1 -0.99994,0.99994 1,1 0 0 1 -1.00044,-0.99994 1,1 0 0 1 1.00044,-1.00045 z"
       id="path1793" />
    <path
       id="path11551"
       style="fill:#000000;fill-opacity:1;stroke:none;stroke-width:0.264583px;stroke-linecap:butt;stroke-linejoin:miter;stroke-opacity:1"
       d="m -164.35508,-136.15734 3.83439,3.83439 5.17695,5.17694 h -7.321 -5.42396 -2.11978 -8.2336 l 4.73305,-4.73304 h 6.31071 l -0.44389,-0.4439 -3.83439,-3.83439 z m 31.4947,4.27829 4.46228,4.46226 -4.48654,4.48603 -4.21577,-4.21525 h -15.62851 l -4.73305,-4.73304 z m -36.28821,5.79293 4.21576,4.21524 h 15.62852 l 4.73302,4.73305 h -24.60159 l -4.46225,-4.46226 z m 45.55744,4.21524 -4.73305,4.73305 h -13.63226 l -4.73303,-4.73305 h 12.74496 2.11976 z" />
  </g>
</svg>
