<?xml version="1.0" encoding="UTF-8" standalone="no"?>
<!-- Created with Inkscape (http://www.inkscape.org/) -->

<svg
   width="509.97183mm"
   height="175.47122mm"
   viewBox="0 0 509.97183 175.47122"
   version="1.1"
   id="svg941"
   inkscape:version="1.1 (c68e22c387, 2021-05-23)"
   sodipodi:docname="kakoi_razorlab_template.svg"
   xmlns:inkscape="http://www.inkscape.org/namespaces/inkscape"
   xmlns:sodipodi="http://sodipodi.sourceforge.net/DTD/sodipodi-0.dtd"
   xmlns="http://www.w3.org/2000/svg"
   xmlns:svg="http://www.w3.org/2000/svg">
  <sodipodi:namedview
     id="namedview943"
     pagecolor="#ffffff"
     bordercolor="#999999"
     borderopacity="1"
     inkscape:pageshadow="0"
     inkscape:pageopacity="0"
     inkscape:pagecheckerboard="0"
     inkscape:document-units="mm"
     showgrid="false"
     inkscape:zoom="0.67081229"
     inkscape:cx="1126.2465"
     inkscape:cy="508.33893"
     inkscape:window-width="2152"
     inkscape:window-height="1368"
     inkscape:window-x="1279"
     inkscape:window-y="0"
     inkscape:window-maximized="0"
     inkscape:current-layer="layer1" />
  <defs
     id="defs938" />
  <g
     inkscape:label="Layer 1"
     inkscape:groupmode="layer"
     id="layer1"
     transform="translate(260.57905,177.86886)">
    <path
       id="path12987"
       style="color:#000000;fill:#000000;stroke-width:3.77953;stroke-linecap:round;stroke-linejoin:round;-inkscape-stroke:none"
       d="m 36.009766,33.519531 c -3.683679,0 -6.414063,2.732337 -6.414063,6.416016 V 110.75 c 0,3.68368 2.730384,6.41406 6.414063,6.41406 H 281.61328 c 3.68372,0 6.41406,-2.73038 6.41406,-6.41406 V 39.935547 c 0,-3.683679 -2.73034,-6.416016 -6.41406,-6.416016 z M 151.5332,50.488281 h 17.8125 v 38.44336 h 1.89649 c 1.00418,0 1.50586,-0.501828 1.50586,-1.50586 v -13.03125 c 0,-1.178834 0.11319,-2.184103 0.33203,-3.013672 0.17461,-0.873259 0.7162,-1.8557 1.63281,-2.947265 0.91684,-1.135144 2.16262,-2.05143 3.73438,-2.75 1.57183,-0.742299 3.88704,-1.35372 6.94335,-1.833985 3.05628,-0.524145 6.67956,-0.785156 10.8711,-0.785156 h 3.66992 c 4.01684,0 7.50763,0.281962 10.47656,0.849609 2.92528,0.524145 5.15155,1.15813 6.67969,1.900391 1.48449,0.742262 2.66393,1.702025 3.53711,2.880859 0.87341,1.178911 1.42059,2.206819 1.63867,3.080079 0.17462,0.873108 0.25977,1.899177 0.25977,3.078125 v 0.392578 h -16.50196 c -0.0873,-0.479773 -0.17831,-0.828305 -0.26562,-1.046875 -0.13077,-0.261544 -0.41277,-0.63681 -0.84961,-1.117188 -0.48049,-0.479735 -1.2906,-0.828305 -2.42578,-1.046875 -1.17887,-0.261543 -2.64223,-0.390625 -4.38867,-0.390625 h -0.25782 c -2.18313,0 -3.86605,0.15157 -5.04492,0.457031 -1.17864,0.261544 -1.89793,0.568401 -2.16015,0.917969 -0.30615,0.349607 -0.45703,0.786667 -0.45703,1.310547 0,0.960794 0.65523,1.526709 1.96484,1.701172 l 16.96094,1.507812 c 5.10841,0.39326 8.77528,1.439826 11.00195,3.142579 2.18309,1.659137 3.27539,4.017903 3.27539,7.074218 v 0.785157 c 0,3.187351 -1.32887,5.871594 -3.99219,8.054687 -2.70701,2.183055 -6.81312,3.275391 -12.31445,3.275391 h -0.7207 c -7.42243,0 -12.92169,-1.788946 -16.50196,-5.369141 -0.52482,3.141203 -2.42596,4.714844 -5.69922,4.714844 H 169.3457 151.5332 V 83.365234 L 138.43359,99.216797 H 118.19336 L 134.63281,79.566406 120.28906,63.980469 h 19.19336 l 12.05078,13.753906 z m -105.171872,0.0039 H 64.175781 V 61.037109 H 46.361328 Z m 207.087892,0 h 17.81445 V 99.216797 H 253.44922 V 83.369141 l -13.09766,15.847656 h -20.23633 l 16.4375,-19.650391 -14.34179,-15.585937 h 19.1875 l 12.05078,13.753906 z M 93.017578,63 h 4.976563 c 4.322499,0 8.142659,0.389602 11.460939,1.175781 3.27458,0.785877 5.85107,1.770384 7.72851,2.949219 1.87748,1.178872 3.40714,2.596722 4.58594,4.255859 1.13514,1.659137 1.89795,3.255103 2.29102,4.783203 0.39326,1.484486 0.58984,3.055669 0.58984,4.714844 v 1.046875 c 0,1.702753 -0.19726,3.317565 -0.58984,4.845703 -0.39326,1.528215 -1.18043,3.142989 -2.35938,4.845704 -1.17883,1.702828 -2.70459,3.166183 -4.58203,4.388671 -1.92102,1.178911 -4.52023,2.182113 -7.79492,3.011719 -3.27455,0.785877 -7.07016,1.179692 -11.392579,1.179692 h -4.845703 -0.0039 C 88.542894,100.19711 84.591489,99.803115 81.230469,99.017578 77.868579,98.187972 75.269298,97.18477 73.435547,96.005859 71.601796,94.827063 70.138516,93.363707 69.046875,91.617188 67.911921,89.870819 67.19252,88.280675 66.886719,86.839844 66.580577,85.355397 66.427734,83.740509 66.427734,81.994141 V 80.814453 C 66.427734,68.938573 75.291065,63 93.017578,63 Z m -46.65625,0.980469 H 64.175781 V 99.216797 H 46.361328 Z m 49.082031,8.974609 c -3.97319,0 -6.790081,0.808458 -8.449218,2.423828 -1.702753,1.57183 -2.554688,3.512156 -2.554688,5.826172 v 0.263672 c 0,2.2704 0.851935,4.297755 2.554688,6.087891 1.702752,1.746519 4.519644,2.623047 8.449218,2.623047 h 0.06445 c 4.016807,0 6.873461,-0.85186 8.576171,-2.554688 1.65914,-1.746444 2.49024,-3.798505 2.49024,-6.15625 v -0.263672 c 0,-2.314016 -0.8311,-4.254342 -2.49024,-5.826172 -1.70271,-1.61537 -4.559364,-2.423828 -8.576171,-2.423828 z m 94.728521,9.625 v 1.50586 c 0,1.921133 0.98052,3.624889 2.94531,5.109374 1.92106,1.440832 4.45602,2.164063 7.59961,2.164063 2.00844,0 3.4451,-0.350371 4.31836,-1.048828 0.82956,-0.69857 1.24804,-1.550505 1.24804,-2.554688 v -0.06445 c 0,-0.87326 -0.32919,-1.528195 -0.98437,-1.964844 -0.65496,-0.436157 -1.76802,-0.786642 -3.33985,-1.048828 z"
       transform="matrix(0.26458333,0,0,0.26458333,-256.06667,-175.58766)" />
    <path
       style="color:#000000;fill:none;stroke:#0000ff;stroke-width:0.1;stroke-linecap:round;stroke-linejoin:round;stroke-miterlimit:4;stroke-dasharray:none;stroke-opacity:1"
       d="m -181.55649,-170.6192 c 3.06779,0 5.59766,2.52987 5.59766,5.59765 v 18.73633 c 0,3.06779 -2.52987,5.59766 -5.59766,5.59766 h -64.98242 c -3.06779,0 -5.59766,-2.52987 -5.59766,-5.59766 v -18.73633 c 0,-3.06778 2.52987,-5.59765 5.59766,-5.59765 z"
       id="path12926" />
    <path
       style="fill:none;fill-opacity:1;stroke:#0000ff;stroke-width:0.1;stroke-linecap:round;stroke-miterlimit:4;stroke-dasharray:none;stroke-opacity:1"
       d="m 74.96504,-99.707118 v 9.999909 h 55.49998 l 5.00019,-5.000216 -5.00019,-4.999693 z m 9.99993,3.99975 c 0.55243,5e-5 1.00016,0.44803 0.99991,1.000463 -3e-5,0.55222 -0.44768,0.99989 -0.99991,0.99994 -0.55224,-4e-5 -0.99991,-0.44771 -0.99994,-0.99994 -2.5e-4,-0.552443 0.4475,-1.000433 0.99994,-1.000463 z m 35.50015,0 c 0.55244,3e-5 1.00019,0.44802 0.99994,1.000463 -3e-5,0.55223 -0.4477,0.9999 -0.99994,0.99994 -0.55224,-4e-5 -0.99991,-0.44771 -0.99994,-0.99994 -2.5e-4,-0.552443 0.4475,-1.000433 0.99994,-1.000463 z"
       sodipodi:nodetypes="cccccccccccccccc"
       id="path13512" />
    <path
       style="fill:none;fill-opacity:1;stroke:#0000ff;stroke-width:0.1;stroke-linecap:round;stroke-miterlimit:4;stroke-dasharray:none;stroke-opacity:1"
       d="m 18.781689,-29.418543 4.99969,-5.000204 5.00022,5.000204 v -97.499997 h 37.999737 l 4.9997,-4.9997 -4.9997,-5.0002 H 23.781379 c -2.76999,0 -4.99969,2.2302 -4.99969,5.0002 z m 3.99975,-9.999904 a 1,1 0 0 1 1.00046,-0.99994 1,1 0 0 1 0.99994,0.99994 1,1 0 0 1 -0.99994,0.99994 1,1 0 0 1 -1.00046,-0.99994 z m 0,-92.500293 a 1,1 0 0 1 0.99994,-1.00047 1,1 0 0 1 1.00046,1.00047 1,1 0 0 1 -1.00046,0.99994 1,1 0 0 1 -0.99994,-0.99994 z m 33.000057,0 a 1,1 0 0 1 0.99994,-1.00044 1,1 0 0 1 0.99993,1.00044 1,1 0 0 1 -0.99993,0.99994 1,1 0 0 1 -0.99994,-0.99994 z"
       id="path13514" />
    <path
       style="fill:none;fill-opacity:1;stroke:#0000ff;stroke-width:0.1;stroke-linecap:round;stroke-miterlimit:4;stroke-dasharray:none;stroke-opacity:1"
       d="m 191.73713,-149.79851 c -2.76997,0 -5.00023,2.2297 -5.00023,4.9997 v 42.99996 l 4.9997,-4.99969 5.00023,4.99969 v -37.99974 h 20.00033 v -9.99992 z m 0,3.99975 c 0.55244,-2.5e-4 1.00042,0.44751 1.00045,0.99995 2.5e-4,0.55264 -0.44781,1.00071 -1.00045,1.00046 -0.55244,-4e-5 -1.00019,-0.44802 -0.99994,-1.00046 3e-5,-0.55225 0.4477,-0.99991 0.99994,-0.99995 z m -0.001,33.00007 c 0.55243,-2.5e-4 1.00041,0.4475 1.00044,0.99994 -4e-5,0.55243 -0.44801,1.00017 -1.00044,0.99993 -0.55223,-4e-5 -0.9999,-0.4477 -0.99994,-0.99993 3e-5,-0.55224 0.4477,-0.99991 0.99994,-0.99994 z"
       sodipodi:nodetypes="ssccccccscccccccccc"
       id="path13516" />
    <path
       style="fill:none;fill-opacity:1;stroke:#0000ff;stroke-width:0.1;stroke-linecap:round;stroke-miterlimit:4;stroke-dasharray:none;stroke-opacity:1"
       d="m 155.43166,-159.15068 c 0,-2.76997 -2.2297,-5.00023 -4.99969,-5.00023 h -42.99996 l 4.99969,4.9997 -4.99969,5.00023 h 37.99974 v 20.00033 h 9.99991 z m -3.99975,0 c 2.5e-4,0.55244 -0.44751,1.00042 -0.99994,1.00045 -0.55264,2.5e-4 -1.00071,-0.44781 -1.00046,-1.00045 3e-5,-0.55244 0.44802,-1.00019 1.00046,-0.99994 0.55224,3e-5 0.9999,0.4477 0.99994,0.99994 z m -33.00006,-0.001 c 2.4e-4,0.55243 -0.44751,1.00041 -0.99994,1.00044 -0.55243,-4e-5 -1.00017,-0.44801 -0.99993,-1.00044 3e-5,-0.55223 0.4477,-0.9999 0.99993,-0.99994 0.55224,3e-5 0.99991,0.4477 0.99994,0.99994 z"
       sodipodi:nodetypes="ssccccccscccccccccc"
       id="path13518" />
    <path
       style="fill:none;fill-opacity:1;stroke:#0000ff;stroke-width:0.1;stroke-linecap:round;stroke-miterlimit:4;stroke-dasharray:none;stroke-opacity:1"
       d="m 92.690808,-144.4511 c 0,2.76997 2.2297,5.00023 4.9997,5.00023 h 42.999962 l -4.99969,-4.9997 4.99969,-5.00023 h -37.99974 v -20.00033 h -9.999922 z m 3.99975,0 c -2.5e-4,-0.55244 0.44751,-1.00042 0.99995,-1.00045 0.55264,-2.5e-4 1.00071,0.44781 1.00046,1.00045 -4e-5,0.55244 -0.44802,1.00019 -1.00046,0.99994 -0.55225,-3e-5 -0.99991,-0.4477 -0.99995,-0.99994 z m 33.000072,0.001 c -2.5e-4,-0.55243 0.4475,-1.00041 0.99994,-1.00044 0.55243,4e-5 1.00017,0.44801 0.99993,1.00044 -4e-5,0.55223 -0.4477,0.9999 -0.99993,0.99994 -0.55224,-3e-5 -0.99991,-0.4477 -0.99994,-0.99994 z"
       sodipodi:nodetypes="ssccccccscccccccccc"
       id="path13520" />
    <path
       style="fill:none;fill-opacity:1;stroke:#0000ff;stroke-width:0.1;stroke-linecap:round;stroke-miterlimit:4;stroke-dasharray:none;stroke-opacity:1"
       d="m 76.316893,-131.91824 c 0,2.76997 2.2297,5.00023 4.99969,5.00023 h 42.999957 l -4.99969,-4.9997 4.99969,-5.00023 H 86.316804 v -20.00033 h -9.999911 z m 3.99975,0 c -2.5e-4,-0.55244 0.44751,-1.00042 0.99994,-1.00045 0.55264,-2.5e-4 1.00071,0.44781 1.00046,1.00045 -3e-5,0.55244 -0.44802,1.00019 -1.00046,0.99994 -0.55224,-3e-5 -0.9999,-0.4477 -0.99994,-0.99994 z m 33.000057,0.001 c -2.4e-4,-0.55243 0.44751,-1.00041 0.99994,-1.00044 0.55243,4e-5 1.00017,0.44801 0.99993,1.00044 -3e-5,0.55223 -0.4477,0.9999 -0.99993,0.99994 -0.55224,-3e-5 -0.99991,-0.4477 -0.99994,-0.99994 z"
       sodipodi:nodetypes="ssccccccscccccccccc"
       id="path13522" />
    <path
       style="fill:none;fill-opacity:1;stroke:#0000ff;stroke-width:0.1;stroke-linecap:round;stroke-miterlimit:4;stroke-dasharray:none;stroke-opacity:1"
       d="m 138.44788,-99.707114 v 9.999905 h 55.49996 l 5.0002,-5.000216 -5.0002,-4.999689 z m 9.99993,3.999746 c 0.55243,5e-5 1.00016,0.44803 0.99991,1.000463 -3e-5,0.55222 -0.44768,0.99989 -0.99991,0.99994 -0.55224,-4e-5 -0.99991,-0.44771 -0.99994,-0.99994 -2.5e-4,-0.552443 0.4475,-1.000433 0.99994,-1.000463 z m 35.50014,0 c 0.55244,3e-5 1.00019,0.44802 0.99994,1.000463 -3e-5,0.55223 -0.4477,0.9999 -0.99994,0.99994 -0.55224,-4e-5 -0.99991,-0.44771 -0.99994,-0.99994 -2.5e-4,-0.552443 0.4475,-1.000433 0.99994,-1.000463 z"
       sodipodi:nodetypes="cccccccccccccccc"
       id="path13524" />
    <path
       style="fill:none;fill-opacity:1;stroke:#0000ff;stroke-width:0.1;stroke-linecap:round;stroke-miterlimit:4;stroke-dasharray:none;stroke-opacity:1"
       d="m 172.15184,-101.72814 h 9.9999 v -55.49995 l -5.00021,-5.0002 -4.99969,5.0002 z m 3.99975,-9.99993 c 5e-5,-0.55243 0.44803,-1.00016 1.00046,-0.99991 0.55222,3e-5 0.99989,0.44768 0.99994,0.99991 -4e-5,0.55224 -0.44771,0.99991 -0.99994,0.99994 -0.55244,2.5e-4 -1.00043,-0.4475 -1.00046,-0.99994 z m 0,-35.50013 c 3e-5,-0.55244 0.44802,-1.00019 1.00046,-0.99994 0.55223,3e-5 0.9999,0.4477 0.99994,0.99994 -4e-5,0.55224 -0.44771,0.99991 -0.99994,0.99994 -0.55244,2.5e-4 -1.00043,-0.4475 -1.00046,-0.99994 z"
       sodipodi:nodetypes="cccccccccccccccc"
       id="path13526" />
    <path
       style="fill:none;fill-opacity:1;stroke:#0000ff;stroke-width:0.1;stroke-linecap:round;stroke-miterlimit:4;stroke-dasharray:none;stroke-opacity:1"
       d="m 158.77844,-115.01681 h 9.99991 v -55.49994 l -5.00022,-5.0002 -4.99969,5.0002 z m 3.99975,-9.99993 c 5e-5,-0.55243 0.44803,-1.00016 1.00046,-0.99991 0.55222,3e-5 0.99989,0.44768 0.99994,0.99991 -4e-5,0.55224 -0.44771,0.99991 -0.99994,0.99994 -0.55244,2.5e-4 -1.00043,-0.4475 -1.00046,-0.99994 z m 0,-35.50012 c 3e-5,-0.55244 0.44802,-1.00019 1.00046,-0.99994 0.55223,3e-5 0.9999,0.4477 0.99994,0.99994 -4e-5,0.55224 -0.44771,0.99991 -0.99994,0.99994 -0.55244,2.5e-4 -1.00043,-0.4475 -1.00046,-0.99994 z"
       sodipodi:nodetypes="cccccccccccccccc"
       id="path13528" />
    <path
       style="fill:none;fill-opacity:1;stroke:#0000ff;stroke-width:0.1;stroke-linecap:round;stroke-miterlimit:4;stroke-dasharray:none;stroke-opacity:1"
       d="m -251.01644,-133.92829 c -2.76997,0 -5.00023,2.22971 -5.00023,4.9997 v 86.000426 c 0,2.77 2.23026,4.9997 5.00023,4.9997 h 199.99968 c 2.77,0 5.0002,-2.2297 5.0002,-4.9997 v -86.000426 c 0,-2.76999 -2.2302,-4.9997 -5.0002,-4.9997 z m 0,3.99976 c 0.55224,3e-5 0.99991,0.4477 0.99994,0.99994 2.5e-4,0.55244 -0.4475,1.00042 -0.99994,1.00045 -0.55264,2.6e-4 -1.00072,-0.44781 -1.00047,-1.00045 3e-5,-0.55244 0.44803,-1.0002 1.00047,-0.99994 z m 52.00019,0 c 0.55224,3e-5 0.99991,0.4477 0.99994,0.99994 -3e-5,0.55224 -0.4477,0.99991 -0.99994,0.99994 -0.55224,-3e-5 -0.99991,-0.4477 -0.99994,-0.99994 3e-5,-0.55224 0.4477,-0.99991 0.99994,-0.99994 z m 35.4999,0 c 0.55224,3e-5 0.99991,0.4477 0.99994,0.99994 -3e-5,0.55224 -0.4477,0.99991 -0.99994,0.99994 -0.55224,-3e-5 -0.99991,-0.4477 -0.99994,-0.99994 3e-5,-0.55224 0.4477,-0.99991 0.99994,-0.99994 z m 19.9998,0 c 0.55224,3e-5 0.99991,0.4477 0.99994,0.99994 -3e-5,0.55224 -0.4477,0.99991 -0.99994,0.99994 -0.55224,-3e-5 -0.99991,-0.4477 -0.99994,-0.99994 3e-5,-0.55224 0.4477,-0.99991 0.99994,-0.99994 z m 92.49979,0 c 0.55224,3e-5 0.9999,0.4477 0.99994,0.99994 2.5e-4,0.55244 -0.44751,1.00042 -0.99994,1.00045 -0.55244,-3e-5 -1.00019,-0.44801 -0.99994,-1.00045 3e-5,-0.55224 0.4477,-0.99991 0.99994,-0.99994 z m 0,32.956126 c 0.55224,3e-5 0.9999,0.4477 0.99994,0.99994 -4e-5,0.55224 -0.4477,0.99991 -0.99994,0.99994 -0.55224,-3e-5 -0.99991,-0.4477 -0.99994,-0.99994 3e-5,-0.55224 0.4477,-0.99991 0.99994,-0.99994 z m -200.00018,0.0439 c 0.55224,3e-5 0.99991,0.4477 0.99994,0.99994 -3e-5,0.55224 -0.4477,0.99991 -0.99994,0.99994 -0.55224,-3e-5 -0.99991,-0.4477 -0.99994,-0.99994 3e-5,-0.55224 0.4477,-0.99991 0.99994,-0.99994 z m 200.00018,19.97036 c 0.55224,3e-5 0.9999,0.4477 0.99994,0.99994 -4e-5,0.55224 -0.4477,0.99991 -0.99994,0.99994 -0.55224,-3e-5 -0.99991,-0.4477 -0.99994,-0.99994 3e-5,-0.55224 0.4477,-0.99991 0.99994,-0.99994 z m -199.99915,0.0294 c 0.55224,3e-5 0.99991,0.4477 0.99994,0.99994 -3e-5,0.55224 -0.4477,0.99991 -0.99994,0.99994 -0.55224,-3e-5 -0.99991,-0.4477 -0.99994,-0.99994 3e-5,-0.55224 0.4477,-0.99991 0.99994,-0.99994 z m 0,33.00057 c 0.55224,3e-5 0.99991,0.4477 0.99994,0.99994 -3e-5,0.55224 -0.4477,0.99991 -0.99994,0.99994 -0.55244,2.6e-4 -1.00044,-0.4475 -1.00047,-0.99994 3e-5,-0.55244 0.44803,-1.0002 1.00047,-0.99994 z m 92.50029,0 c 0.5421,1.4e-4 0.98538,0.43219 0.99941,0.97411 1.1e-4,0.009 1.1e-4,0.0172 0,0.0258 7e-5,0.52345 -0.40355,0.95837 -0.92554,0.99735 -0.0247,0.002 -0.0496,0.003 -0.0744,0.003 -0.55224,-3e-5 -0.99991,-0.4477 -0.99994,-0.99994 3e-5,-0.55224 0.4477,-0.99991 0.99994,-0.99994 z m 19.99877,0 c 0.55224,3e-5 0.99991,0.4477 0.99994,0.99994 -3e-5,0.55224 -0.4477,0.99991 -0.99994,0.99994 -0.55224,-3e-5 -0.99991,-0.4477 -0.99994,-0.99994 3e-5,-0.55224 0.4477,-0.99991 0.99994,-0.99994 z m 87.50062,0 c 0.55224,3e-5 0.99991,0.4477 0.99994,0.99994 -3e-5,0.55224 -0.4477,0.99991 -0.99994,0.99994 -0.55224,-3e-5 -0.99991,-0.4477 -0.99994,-0.99994 3e-5,-0.55224 0.4477,-0.99991 0.99994,-0.99994 z"
       sodipodi:nodetypes="sssssssssccccccccccccccccccccccccccccccccccccccccccccccscsccccccccccccccccccc"
       id="path13530" />
    <g
       id="g10975"
       transform="translate(134.10359,1.6705222)"
       style="fill:none;stroke:#0000ff;stroke-opacity:1">
      <path
         style="fill:none;fill-opacity:1;stroke:#0000ff;stroke-width:0.1;stroke-linecap:round;stroke-miterlimit:4;stroke-dasharray:none;stroke-opacity:1"
         d="m 81.185451,-113.60059 v 37.999751 H -11.31484 l -5.000201,5.00021 5.000201,4.9997 h 97.499991 c 2.76998,0 5.00023,-2.2297 5.0002,-4.9997 v -42.999961 l -4.99967,4.9997 z m 5.00023,8.99997 a 1,1 0 0 1 0.99994,0.99994 1,1 0 0 1 -0.99994,0.99994 1,1 0 0 1 -1.00047,-0.99994 1,1 0 0 1 1.00047,-0.99994 z m -87.5006215,32.999541 a 1,1 0 0 1 0.99994007,0.99994 1,1 0 0 1 -0.99994007,1.00045 1,1 0 0 1 -0.99994,-1.00045 1,1 0 0 1 0.99994,-0.99994 z m 87.5000915,0 a 1,1 0 0 1 0.99994,1.00045 1,1 0 0 1 -0.99994,0.99994 1,1 0 0 1 -1.00044,-0.99994 1,1 0 0 1 1.00044,-1.00045 z"
         id="path13532" />
      <path
         style="fill:none;fill-opacity:1;stroke:#0000ff;stroke-width:0.1;stroke-linecap:round;stroke-miterlimit:4;stroke-dasharray:none;stroke-opacity:1"
         d="m 67.972304,-126.61653 v 37.999755 h -92.500292 l -5.0002,5.00021 5.0002,4.9997 h 97.499992 c 2.76998,0 5.00023,-2.2297 5.0002,-4.9997 v -42.999965 l -4.99967,4.9997 z m 5.00023,8.99997 a 1,1 0 0 1 0.99994,0.99994 1,1 0 0 1 -0.99994,0.99994 1,1 0 0 1 -1.00047,-0.99994 1,1 0 0 1 1.00047,-0.99994 z m -87.500622,32.999545 a 1,1 0 0 1 0.99994,0.99994 1,1 0 0 1 -0.99994,1.00045 1,1 0 0 1 -0.99994,-1.00045 1,1 0 0 1 0.99994,-0.99994 z m 87.500092,0 a 1,1 0 0 1 0.99994,1.00045 1,1 0 0 1 -0.99994,0.99994 1,1 0 0 1 -1.00044,-0.99994 1,1 0 0 1 1.00044,-1.00045 z"
         id="path13534" />
    </g>
    <path
       style="fill:none;fill-opacity:1;stroke:#0000ff;stroke-width:0.1;stroke-linecap:round;stroke-miterlimit:4;stroke-dasharray:none;stroke-opacity:1"
       d="m 56.237797,-77.017058 v -37.999752 h 92.500293 l 5.0002,-5.00021 -5.0002,-4.9997 H 51.238097 c -2.76998,0 -5.00023,2.2297 -5.0002,4.9997 v 42.999962 l 4.99967,-4.9997 z m -5.00023,-8.99997 a 1,1 0 0 1 -0.99994,-0.99994 1,1 0 0 1 0.99994,-0.99994 1,1 0 0 1 1.00047,0.99994 1,1 0 0 1 -1.00047,0.99994 z m 87.500623,-32.999542 a 1,1 0 0 1 -0.99994,-0.99994 1,1 0 0 1 0.99994,-1.00045 1,1 0 0 1 0.99994,1.00045 1,1 0 0 1 -0.99994,0.99994 z m -87.500093,0 a 1,1 0 0 1 -0.99994,-1.00045 1,1 0 0 1 0.99994,-0.99994 1,1 0 0 1 1.00044,0.99994 1,1 0 0 1 -1.00044,1.00045 z"
       id="path13537" />
    <path
       style="fill:none;fill-opacity:1;stroke:#0000ff;stroke-width:0.1;stroke-linecap:round;stroke-miterlimit:4;stroke-dasharray:none;stroke-opacity:1"
       d="m 69.450944,-64.001118 v -37.999752 h 92.500296 l 5.0002,-5.00021 -5.0002,-4.9997 H 64.451244 c -2.76998,0 -5.00023,2.2297 -5.0002,4.9997 v 42.999962 l 4.99967,-4.9997 z m -5.00023,-8.99997 a 1,1 0 0 1 -0.99994,-0.99994 1,1 0 0 1 0.99994,-0.99994 1,1 0 0 1 1.00047,0.99994 1,1 0 0 1 -1.00047,0.99994 z m 87.500626,-32.999542 a 1,1 0 0 1 -0.99994,-0.99994 1,1 0 0 1 0.99994,-1.00045 1,1 0 0 1 0.99994,1.00045 1,1 0 0 1 -0.99994,0.99994 z m -87.500096,0 a 1,1 0 0 1 -0.99994,-1.00045 1,1 0 0 1 0.99994,-0.99994 1,1 0 0 1 1.00044,0.99994 1,1 0 0 1 -1.00044,1.00045 z"
       id="path13539" />
    <path
       style="fill:none;fill-opacity:1;stroke:#0000ff;stroke-width:0.1;stroke-linecap:round;stroke-miterlimit:4;stroke-dasharray:none;stroke-opacity:1"
       d="m 41.490676,-123.70339 -4.99969,5.0002 -5.00022,-5.0002 v 97.500018 H -6.5089585 l -4.9996995,4.9997 4.9996995,5.0002 H 36.490986 c 2.76999,0 4.99969,-2.2302 4.99969,-5.0002 z m -3.99975,9.9999 a 1,1 0 0 1 -1.00046,0.99994 1,1 0 0 1 -0.99994,-0.99994 1,1 0 0 1 0.99994,-0.99994 1,1 0 0 1 1.00046,0.99994 z m 0,92.500318 a 1,1 0 0 1 -0.99994,1.00047 1,1 0 0 1 -1.00046,-1.00047 1,1 0 0 1 1.00046,-0.99994 1,1 0 0 1 0.99994,0.99994 z m -33.0000575,0 a 1,1 0 0 1 -0.99994,1.00044 1,1 0 0 1 -0.999926,-1.00044 1,1 0 0 1 0.999926,-0.99994 1,1 0 0 1 0.99994,0.99994 z"
       id="path13541" />
    <path
       style="fill:none;fill-opacity:1;stroke:#0000ff;stroke-width:0.1;stroke-linecap:round;stroke-miterlimit:4;stroke-dasharray:none;stroke-opacity:1"
       d="m -0.7403585,-42.356248 4.999693,-5.000204 5.00022,5.000204 V -139.85629 H 47.259292 l 4.9997,-4.9997 -4.9997,-5.0002 H 4.2593345 c -2.76999,0 -4.999693,2.2302 -4.999693,5.0002 z m 3.999753,-9.999904 a 1,1 0 0 1 1.00046,-0.99994 1,1 0 0 1 0.99994,0.99994 1,1 0 0 1 -0.99994,0.99994 1,1 0 0 1 -1.00046,-0.99994 z m 0,-92.500338 a 1,1 0 0 1 0.99994,-1.00047 1,1 0 0 1 1.00046,1.00047 1,1 0 0 1 -1.00046,0.99994 1,1 0 0 1 -0.99994,-0.99994 z m 33.0000575,0 a 1,1 0 0 1 0.99994,-1.00044 1,1 0 0 1 0.99993,1.00044 1,1 0 0 1 -0.99993,0.99994 1,1 0 0 1 -0.99994,-0.99994 z"
       id="path13543" />
    <path
       style="fill:none;fill-opacity:1;stroke:#0000ff;stroke-width:0.1;stroke-linecap:round;stroke-miterlimit:4;stroke-dasharray:none;stroke-opacity:1"
       d="m -36.700298,-137.29254 4.99969,5.0002 5.00022,-5.0002 v 97.500037 h 37.999725 l 4.9997,4.9997 -4.9997,5.0002 h -42.999945 c -2.76999,0 -4.99969,-2.2302 -4.99969,-5.0002 z m 3.99975,9.9999 a 1,1 0 0 0 1.00046,0.99994 1,1 0 0 0 0.99994,-0.99994 1,1 0 0 0 -0.99994,-0.99994 1,1 0 0 0 -1.00046,0.99994 z m 0,92.500337 a 1,1 0 0 0 0.99994,1.00047 1,1 0 0 0 1.00046,-1.00047 1,1 0 0 0 -1.00046,-0.99994 1,1 0 0 0 -0.99994,0.99994 z m 33.0000595,0 a 1,1 0 0 0 0.999937,1.00044 1,1 0 0 0 0.999924,-1.00044 1,1 0 0 0 -0.999924,-0.99994 1,1 0 0 0 -0.999937,0.99994 z"
       id="path13545" />
    <path
       style="fill:none;fill-opacity:1;stroke:#0000ff;stroke-width:0.1;stroke-linecap:round;stroke-miterlimit:4;stroke-dasharray:none;stroke-opacity:1"
       d="m -8.2343785,-42.356248 -4.9996895,-5.0002 -5.00022,5.0002 v -97.500042 h -37.99972 l -4.9997,-4.9997 4.9997,-5.0002 h 42.99994 c 2.76999,0 4.9996895,2.2302 4.9996895,5.0002 z m -3.9997495,-9.9999 a 1,1 0 0 0 -1.00046,-0.99994 1,1 0 0 0 -0.99994,0.99994 1,1 0 0 0 0.99994,0.99994 1,1 0 0 0 1.00046,-0.99994 z m 0,-92.500342 a 1,1 0 0 0 -0.99994,-1.00047 1,1 0 0 0 -1.00046,1.00047 1,1 0 0 0 1.00046,0.99994 1,1 0 0 0 0.99994,-0.99994 z m -33.00007,0 a 1,1 0 0 0 -0.99993,-1.00044 1,1 0 0 0 -0.99993,1.00044 1,1 0 0 0 0.99993,0.99994 1,1 0 0 0 0.99993,-0.99994 z"
       id="path13547" />
    <path
       style="fill:none;fill-opacity:1;stroke:#0000ff;stroke-width:0.1;stroke-linecap:round;stroke-miterlimit:4;stroke-dasharray:none;stroke-opacity:1"
       d="m 131.86804,-49.044117 5.0002,-4.99969 -5.0002,-5.00022 h 97.50003 V -97.04376 l 4.9997,-4.9997 5.0002,4.9997 v 42.999953 c 0,2.76999 -2.2302,4.99969 -5.0002,4.99969 z m 9.9999,-3.99975 a 1,1 0 0 0 0.99994,-1.00046 1,1 0 0 0 -0.99994,-0.99994 1,1 0 0 0 -0.99994,0.99994 1,1 0 0 0 0.99994,1.00046 z m 92.50033,0 a 1,1 0 0 0 1.00047,-0.99994 1,1 0 0 0 -1.00047,-1.00046 1,1 0 0 0 -0.99994,1.00046 1,1 0 0 0 0.99994,0.99994 z m 0,-33.00006 a 1,1 0 0 0 1.00044,-0.99994 1,1 0 0 0 -1.00044,-0.99992 1,1 0 0 0 -0.99994,0.99992 1,1 0 0 0 0.99994,0.99994 z"
       id="path13549" />
    <path
       style="fill:none;fill-opacity:1;stroke:#0000ff;stroke-width:0.1;stroke-linecap:round;stroke-miterlimit:4;stroke-dasharray:none;stroke-opacity:1"
       d="m 166.95098,-12.057265 -5.0002,-4.99969 5.0002,-5.00022 H 69.450944 v -37.99972 l -4.9997,-4.9997 -5.0002,4.9997 v 42.99994 c 0,2.76999 2.2302,4.99969 5.0002,4.99969 z m -9.9999,-3.99975 a 1,1 0 0 1 -0.99994,-1.00046 1,1 0 0 1 0.99994,-0.99994 1,1 0 0 1 0.99994,0.99994 1,1 0 0 1 -0.99994,1.00046 z m -92.500336,0 a 1,1 0 0 1 -1.00047,-0.99994 1,1 0 0 1 1.00047,-1.00046 1,1 0 0 1 0.99994,1.00046 1,1 0 0 1 -0.99994,0.99994 z m 0,-33.00007 a 1,1 0 0 1 -1.00044,-0.99993 1,1 0 0 1 1.00044,-0.99993 1,1 0 0 1 0.99994,0.99993 1,1 0 0 1 -0.99994,0.99993 z"
       id="path13551" />
    <path
       style="fill:none;fill-opacity:1;stroke:#0000ff;stroke-width:0.1;stroke-linecap:round;stroke-miterlimit:4;stroke-dasharray:none;stroke-opacity:1"
       d="m 180.10199,-33.981606 -5.0002,-4.99969 5.0002,-5.00022 H 82.601957 v -37.99972 l -4.9997,-4.9997 -5.0002,4.9997 v 42.99994 c 0,2.76999 2.2302,4.99969 5.0002,4.99969 z m -9.9999,-3.99975 a 1,1 0 0 1 -0.99994,-1.00046 1,1 0 0 1 0.99994,-0.99994 1,1 0 0 1 0.99994,0.99994 1,1 0 0 1 -0.99994,1.00046 z m -92.500333,0 a 1,1 0 0 1 -1.00047,-0.99994 1,1 0 0 1 1.00047,-1.00046 1,1 0 0 1 0.99994,1.00046 1,1 0 0 1 -0.99994,0.99994 z m 0,-33.00007 a 1,1 0 0 1 -1.00044,-0.99993 1,1 0 0 1 1.00044,-0.99993 1,1 0 0 1 0.99994,0.99993 1,1 0 0 1 -0.99994,0.99993 z"
       id="path13553" />
    <path
       id="path10963"
       style="font-weight:bold;font-size:9.00943px;line-height:1.25;font-family:'Druk Wide Bold';-inkscape-font-specification:'Druk Wide Bold,  Bold';fill:#000000;fill-opacity:1;stroke:none;stroke-width:0.1;stroke-miterlimit:4;stroke-dasharray:none;stroke-opacity:1"
       d="m -148.22967,-92.504431 v 10.171472 h 0.50178 c 0.26569,0 0.39842,-0.132775 0.39842,-0.398425 v -3.447852 c 0,-0.311898 0.0299,-0.577876 0.0878,-0.797366 0.0462,-0.23105 0.1895,-0.490988 0.43202,-0.779796 0.24258,-0.300342 0.57219,-0.542774 0.98805,-0.727604 0.41588,-0.196393 1.02845,-0.358172 1.8371,-0.485244 0.80864,-0.138678 1.7673,-0.20774 2.87631,-0.20774 h 0.971 c 1.06279,0 1.98639,0.07457 2.77192,0.224793 0.77398,0.138671 1.36302,0.306422 1.76734,0.502811 0.39277,0.196393 0.70483,0.450329 0.93586,0.762228 0.23109,0.311912 0.37586,0.583888 0.43356,0.814938 0.0462,0.23101 0.0687,0.502491 0.0687,0.814422 v 0.10387 h -4.36614 c -0.0231,-0.126942 -0.0467,-0.219157 -0.0698,-0.276987 -0.0346,-0.0692 -0.10921,-0.16849 -0.22479,-0.29559 -0.12713,-0.126929 -0.34148,-0.219155 -0.64183,-0.276985 -0.31191,-0.0692 -0.69909,-0.103354 -1.16117,-0.103354 h -0.0687 c -0.57762,0 -1.02289,0.04015 -1.3348,0.120923 -0.31185,0.0692 -0.50216,0.150389 -0.57154,0.242879 -0.081,0.0925 -0.12092,0.20814 -0.12092,0.34675 0,0.254209 0.17336,0.403942 0.51986,0.450101 l 4.48758,0.398942 c 1.3516,0.10405 2.3218,0.380955 2.91094,0.831474 0.57761,0.438981 0.86661,1.063072 0.86661,1.871721 v 0.20774 c 0,0.84332 -0.35159,1.553525 -1.05626,2.131137 -0.71623,0.577598 -1.80265,0.866613 -3.25821,0.866613 h -0.19068 c -1.96385,0 -3.41886,-0.473326 -4.36614,-1.420587 -0.13886,0.831111 -0.64187,1.24747 -1.50792,1.24747 h -3.91604 -4.71289 v -4.194058 l -3.46594,4.194058 h -5.35523 l 4.34961,-5.199165 -3.79512,-4.12378 h 5.07824 l 3.18844,3.639055 v -7.208864 z m 26.9658,0.0011 v 12.891719 h -4.71341 v -4.193027 l -3.46542,4.193027 h -5.3542 l 4.34909,-5.199166 -3.7946,-4.123779 h 5.07669 l 3.18844,3.639055 v -7.207829 z m -54.79201,0 v 2.79001 h -4.71341 v -2.79001 z m 8.94777,3.309358 c 1.14366,0 2.15442,0.103081 3.03238,0.311091 0.8664,0.207931 1.5481,0.468416 2.04484,0.780315 0.49675,0.311909 0.90147,0.687049 1.21336,1.126029 0.30034,0.438981 0.50216,0.861238 0.60616,1.265555 0.10405,0.392761 0.15607,0.80849 0.15607,1.247471 v 0.276984 c 0,0.450522 -0.0522,0.877774 -0.15607,1.282095 -0.10405,0.404338 -0.31232,0.83159 -0.62425,1.282091 -0.3119,0.45054 -0.71559,0.837718 -1.21233,1.161169 -0.50827,0.31192 -1.19598,0.57736 -2.06241,0.796851 -0.86639,0.207931 -1.87064,0.312126 -3.01428,0.312126 h -1.28209 -10e-4 c -1.20098,-4e-5 -2.24646,-0.104285 -3.13573,-0.312126 -0.8895,-0.219491 -1.57723,-0.484931 -2.06241,-0.796851 -0.48518,-0.311891 -0.87233,-0.699069 -1.16116,-1.161169 -0.30029,-0.46206 -0.49064,-0.882785 -0.57155,-1.264005 -0.081,-0.39276 -0.12144,-0.820033 -0.12144,-1.282094 v -0.312126 c 0,-3.14216 2.34509,-4.713406 7.03523,-4.713406 z m -8.94777,0.259416 v 9.322945 h -4.71341 v -9.322945 z m 8.28994,2.374532 h -0.0171 c -1.05124,0 -1.79654,0.213905 -2.23552,0.641305 -0.45052,0.41588 -0.67593,0.929248 -0.67593,1.541507 v 0.06976 c 0,0.60071 0.22541,1.137116 0.67593,1.610754 0.45052,0.4621 1.19582,0.694015 2.23552,0.694015 h 0.0171 c 1.06278,0 1.8186,-0.225388 2.26911,-0.675928 0.43898,-0.462079 0.65887,-1.00503 0.65887,-1.628841 v -0.06976 c 0,-0.612259 -0.21989,-1.125627 -0.65887,-1.541507 -0.45051,-0.4274 -1.20633,-0.641305 -2.26911,-0.641305 z m 25.04653,2.546614 v 0.398426 c 0,0.508299 0.25943,0.959085 0.77928,1.351854 0.50828,0.381222 1.17899,0.572577 2.01073,0.572577 0.5314,0 0.91151,-0.0927 1.14256,-0.277503 0.21949,-0.18483 0.33022,-0.410239 0.33022,-0.675929 v -0.01704 c 0,-0.23105 -0.0871,-0.404336 -0.26045,-0.519866 -0.17329,-0.115398 -0.46779,-0.208132 -0.88367,-0.277501 z" />
    <path
       style="color:#000000;fill:#000000;stroke-linecap:round;stroke-linejoin:round;-inkscape-stroke:none"
       d="m -118.52539,-100.89453 c 3.06779,0 5.59766,2.529868 5.59766,5.597655 v 18.736328 c 0,3.067787 -2.52987,5.597656 -5.59766,5.597656 h -64.98242 c -3.06779,0 -5.59766,-2.529869 -5.59766,-5.597656 v -18.736328 c 0,-3.067787 2.52987,-5.597655 5.59766,-5.597655 z m 0,3.900389 h -64.98242 c -0.97464,0 -1.69726,0.722623 -1.69726,1.697266 v 18.736328 c 0,0.974643 0.72262,1.697266 1.69726,1.697266 h 64.98242 c 0.97465,0 1.69727,-0.722623 1.69727,-1.697266 v -18.736328 c 0,-0.974643 -0.72262,-1.697266 -1.69727,-1.697266 z"
       id="rect11795" />
  </g>
</svg>
