<?xml version="1.0" encoding="UTF-8" standalone="no"?>
<!-- Created with Inkscape (http://www.inkscape.org/) -->

<svg
   width="210.10062mm"
   height="348.39694mm"
   viewBox="0 0 210.10062 348.39695"
   version="1.1"
   id="svg5"
   inkscape:version="1.1 (c68e22c387, 2021-05-23)"
   sodipodi:docname="KAKOI.svg"
   xmlns:inkscape="http://www.inkscape.org/namespaces/inkscape"
   xmlns:sodipodi="http://sodipodi.sourceforge.net/DTD/sodipodi-0.dtd"
   xmlns="http://www.w3.org/2000/svg"
   xmlns:svg="http://www.w3.org/2000/svg">
  <sodipodi:namedview
     id="namedview7"
     pagecolor="#ffffff"
     bordercolor="#999999"
     borderopacity="1"
     inkscape:pageshadow="0"
     inkscape:pageopacity="0"
     inkscape:pagecheckerboard="0"
     inkscape:document-units="mm"
     showgrid="false"
     inkscape:snap-smooth-nodes="true"
     showguides="true"
     inkscape:guide-bbox="true"
     inkscape:object-paths="true"
     inkscape:snap-intersection-paths="true"
     inkscape:zoom="0.575"
     inkscape:cx="546.95652"
     inkscape:cy="617.3913"
     inkscape:window-width="2152"
     inkscape:window-height="1368"
     inkscape:window-x="1279"
     inkscape:window-y="0"
     inkscape:window-maximized="0"
     inkscape:current-layer="layer1"
     inkscape:snap-nodes="true" />
  <defs
     id="defs2" />
  <g
     inkscape:label="Layer 1"
     inkscape:groupmode="layer"
     id="layer1"
     transform="translate(0.0503,101.40595)">
    <g
       id="g76876"
       transform="translate(177.79502,97.316061)">
      <g
         id="g76617"
         transform="translate(58.131139,-131.06033)" />
    </g>
    <g
       id="g4822"
       transform="translate(0,-12.945258)">
      <path
         id="path58405"
         style="fill:none;fill-opacity:1;stroke:#000000;stroke-width:0.1;stroke-linecap:round;stroke-miterlimit:4;stroke-dasharray:none;stroke-opacity:1"
         d="m 5.00043,31.07029 c -2.76997,0 -5.00023,2.2297 -5.00023,4.99969 v 42.99996 l 4.9997,-4.99969 5.00023,4.99969 V 41.0702 h 20.00033 v -9.99991 z m 42.00001,0 v 9.99991 h 55.49998 l 5.0002,-5.00022 -5.0002,-4.99969 z M 5.00043,35.07004 c 0.55244,-2.49e-4 1.00042,0.447503 1.00045,0.99994 2.5e-4,0.55264 -0.44781,1.000709 -1.00045,1.00046 -0.55244,-3.3e-5 -1.00019,-0.448019 -0.99994,-1.00046 3e-5,-0.552238 0.4477,-0.999907 0.99994,-0.99994 z m 51.99994,0 c 0.55243,5e-5 1.00016,0.448031 0.99991,1.00046 -3e-5,0.552226 -0.44768,0.99989 -0.99991,0.99994 -0.55224,-3.3e-5 -0.99991,-0.447702 -0.99994,-0.99994 -2.5e-4,-0.552441 0.4475,-1.000427 0.99994,-1.00046 z m 35.50015,0 c 0.55244,3.3e-5 1.00019,0.448019 0.99994,1.00046 -3e-5,0.552238 -0.4477,0.999907 -0.99994,0.99994 -0.55224,-3.3e-5 -0.99991,-0.447702 -0.99994,-0.99994 -2.5e-4,-0.552441 0.4475,-1.000427 0.99994,-1.00046 z M 4.9994,68.0701 c 0.55243,-2.43e-4 1.00041,0.447507 1.00044,0.99994 -4e-5,0.552429 -0.44801,1.000173 -1.00044,0.99993 -0.55223,-3.3e-5 -0.9999,-0.447696 -0.99994,-0.99993 3e-5,-0.552238 0.4477,-0.999907 0.99994,-0.99994 z"
         sodipodi:nodetypes="ssccccccscccccccccccccccccccccccccc" />
      <path
         id="path58852"
         style="fill:none;fill-opacity:1;stroke:#000000;stroke-width:0.1;stroke-linecap:round;stroke-miterlimit:4;stroke-dasharray:none;stroke-opacity:1"
         d="m 102.50042,31.07029 5.0002,4.99969 -5.0002,5.00022 h 97.49999 v 37.99974 l 4.9997,4.9997 5.0002,-4.9997 V 36.06998 c 0,-2.76999 -2.2302,-4.99969 -5.0002,-4.99969 z m 9.9999,3.99975 a 1,1 0 0 1 0.99994,1.00046 1,1 0 0 1 -0.99994,0.99994 1,1 0 0 1 -0.99994,-0.99994 1,1 0 0 1 0.99994,-1.00046 z m 92.50029,0 a 1,1 0 0 1 1.00047,0.99994 1,1 0 0 1 -1.00047,1.00046 1,1 0 0 1 -0.99994,-1.00046 1,1 0 0 1 0.99994,-0.99994 z m 0,33.00006 a 1,1 0 0 1 1.00044,0.99994 1,1 0 0 1 -1.00044,0.99993 1,1 0 0 1 -0.99994,-0.99993 1,1 0 0 1 0.99994,-0.99994 z" />
      <path
         id="path59551"
         style="fill:none;fill-opacity:1;stroke:#000000;stroke-width:0.1;stroke-linecap:round;stroke-miterlimit:4;stroke-dasharray:none;stroke-opacity:1"
         d="m 199.99988,79.06994 v 37.99975 h -92.50029 l -5.0002,5.00021 5.0002,4.9997 h 97.49999 c 2.76998,0 5.00023,-2.2297 5.0002,-4.9997 V 79.06994 l -4.99967,4.9997 z m 5.00023,8.99997 a 1,1 0 0 1 0.99994,0.99994 1,1 0 0 1 -0.99994,0.99994 1,1 0 0 1 -1.00047,-0.99994 1,1 0 0 1 1.00047,-0.99994 z m -87.50062,32.99954 a 1,1 0 0 1 0.99994,0.99994 1,1 0 0 1 -0.99994,1.00045 1,1 0 0 1 -0.99994,-1.00045 1,1 0 0 1 0.99994,-0.99994 z m 87.50009,0 a 1,1 0 0 1 0.99994,1.00045 1,1 0 0 1 -0.99994,0.99994 1,1 0 0 1 -1.00044,-0.99994 1,1 0 0 1 1.00044,-1.00045 z" />
      <path
         id="path59553"
         style="fill:none;fill-opacity:1;stroke:#000000;stroke-width:0.1;stroke-linecap:round;stroke-miterlimit:4;stroke-dasharray:none;stroke-opacity:1"
         d="M 4.9999,74.07025 -3e-4,79.06994 v 42.99996 c 0,2.76999 2.2302,4.9997 5.0002,4.9997 h 102.49969 l -5.0002,-4.9997 5.0002,-5.00021 H 9.9996 V 79.06994 Z m 0,13.99966 A 1,1 0 0 1 6.00037,89.06985 1,1 0 0 1 4.9999,90.06979 1,1 0 0 1 3.99996,89.06985 1,1 0 0 1 4.9999,88.06991 Z m 0,32.99954 a 1,1 0 0 1 0.99994,1.00045 1,1 0 0 1 -0.99994,0.99994 1,1 0 0 1 -1.00047,-0.99994 1,1 0 0 1 1.00047,-1.00045 z m 92.50029,0 a 1,1 0 0 1 0.99994,0.99994 1,1 0 0 1 -0.99994,1.00045 1,1 0 0 1 -0.99994,-1.00045 1,1 0 0 1 0.99994,-0.99994 z" />
    </g>
    <text
       xml:space="preserve"
       style="font-style:normal;font-weight:normal;font-size:5.73927px;line-height:1.25;font-family:sans-serif;fill:#000000;fill-opacity:1;stroke:none;stroke-width:0.1;stroke-miterlimit:4;stroke-dasharray:none"
       x="67.416466"
       y="246.90489"
       id="text70148"><tspan
         sodipodi:role="line"
         id="tspan70146"
         style="font-style:normal;font-variant:normal;font-weight:normal;font-stretch:normal;font-family:'Druk Wide';-inkscape-font-specification:'Druk Wide';fill:none;stroke:#000702;stroke-width:0.1;stroke-miterlimit:4;stroke-dasharray:none;stroke-opacity:1"
         x="67.416466"
         y="246.90489">kakoi - Bottom Plate</tspan></text>
    <g
       id="g4850"
       transform="translate(0,-0.51718558)">
      <path
         id="rect3901"
         style="fill:none;fill-opacity:1;stroke:#000000;stroke-width:0.1;stroke-linecap:round;stroke-miterlimit:4;stroke-dasharray:none;stroke-opacity:1"
         d="m 5.00018,138.1232 c -2.76997,0 -5.00023,2.22971 -5.00023,4.9997 v 86.00043 c 0,2.77 2.23026,4.9997 5.00023,4.9997 h 199.99968 c 2.77,0 5.0002,-2.2297 5.0002,-4.9997 V 143.1229 c 0,-2.76999 -2.2302,-4.9997 -5.0002,-4.9997 z m 0,3.99976 c 0.55224,3e-5 0.99991,0.4477 0.99994,0.99994 2.5e-4,0.55244 -0.4475,1.00042 -0.99994,1.00045 -0.55264,2.6e-4 -1.00072,-0.44781 -1.00047,-1.00045 3e-5,-0.55244 0.44803,-1.0002 1.00047,-0.99994 z m 52.00019,0 c 0.55224,3e-5 0.99991,0.4477 0.99994,0.99994 -3e-5,0.55224 -0.4477,0.99991 -0.99994,0.99994 -0.55224,-3e-5 -0.99991,-0.4477 -0.99994,-0.99994 3e-5,-0.55224 0.4477,-0.99991 0.99994,-0.99994 z m 35.4999,0 c 0.55224,3e-5 0.99991,0.4477 0.99994,0.99994 -3e-5,0.55224 -0.4477,0.99991 -0.99994,0.99994 -0.55224,-3e-5 -0.99991,-0.4477 -0.99994,-0.99994 3e-5,-0.55224 0.4477,-0.99991 0.99994,-0.99994 z m 19.9998,0 c 0.55224,3e-5 0.99991,0.4477 0.99994,0.99994 -3e-5,0.55224 -0.4477,0.99991 -0.99994,0.99994 -0.55224,-3e-5 -0.99991,-0.4477 -0.99994,-0.99994 3e-5,-0.55224 0.4477,-0.99991 0.99994,-0.99994 z m 92.49979,0 c 0.55224,3e-5 0.9999,0.4477 0.99994,0.99994 2.5e-4,0.55244 -0.44751,1.00042 -0.99994,1.00045 -0.55244,-3e-5 -1.00019,-0.44801 -0.99994,-1.00045 3e-5,-0.55224 0.4477,-0.99991 0.99994,-0.99994 z m 0,32.95613 c 0.55224,3e-5 0.9999,0.4477 0.99994,0.99994 -4e-5,0.55224 -0.4477,0.99991 -0.99994,0.99994 -0.55224,-3e-5 -0.99991,-0.4477 -0.99994,-0.99994 3e-5,-0.55224 0.4477,-0.99991 0.99994,-0.99994 z m -200.00018,0.0439 c 0.55224,3e-5 0.99991,0.4477 0.99994,0.99994 -3e-5,0.55224 -0.4477,0.99991 -0.99994,0.99994 -0.55224,-3e-5 -0.99991,-0.4477 -0.99994,-0.99994 3e-5,-0.55224 0.4477,-0.99991 0.99994,-0.99994 z m 200.00018,19.97036 c 0.55224,3e-5 0.9999,0.4477 0.99994,0.99994 -4e-5,0.55224 -0.4477,0.99991 -0.99994,0.99994 -0.55224,-3e-5 -0.99991,-0.4477 -0.99994,-0.99994 3e-5,-0.55224 0.4477,-0.99991 0.99994,-0.99994 z m -199.99915,0.0294 c 0.55224,3e-5 0.99991,0.4477 0.99994,0.99994 -3e-5,0.55224 -0.4477,0.99991 -0.99994,0.99994 -0.55224,-3e-5 -0.99991,-0.4477 -0.99994,-0.99994 3e-5,-0.55224 0.4477,-0.99991 0.99994,-0.99994 z m 0,33.00057 c 0.55224,3e-5 0.99991,0.4477 0.99994,0.99994 -3e-5,0.55224 -0.4477,0.99991 -0.99994,0.99994 -0.55244,2.6e-4 -1.00044,-0.4475 -1.00047,-0.99994 3e-5,-0.55244 0.44803,-1.0002 1.00047,-0.99994 z m 92.50029,0 c 0.5421,1.4e-4 0.98538,0.43219 0.99941,0.97411 1.1e-4,0.009 1.1e-4,0.0172 0,0.0258 7e-5,0.52345 -0.40355,0.95837 -0.92554,0.99735 -0.0247,0.002 -0.0496,0.003 -0.0744,0.003 -0.55224,-3e-5 -0.99991,-0.4477 -0.99994,-0.99994 3e-5,-0.55224 0.4477,-0.99991 0.99994,-0.99994 z m 19.99877,0 c 0.55224,3e-5 0.99991,0.4477 0.99994,0.99994 -3e-5,0.55224 -0.4477,0.99991 -0.99994,0.99994 -0.55224,-3e-5 -0.99991,-0.4477 -0.99994,-0.99994 3e-5,-0.55224 0.4477,-0.99991 0.99994,-0.99994 z m 87.50062,0 c 0.55224,3e-5 0.99991,0.4477 0.99994,0.99994 -3e-5,0.55224 -0.4477,0.99991 -0.99994,0.99994 -0.55224,-3e-5 -0.99991,-0.4477 -0.99994,-0.99994 3e-5,-0.55224 0.4477,-0.99991 0.99994,-0.99994 z"
         sodipodi:nodetypes="sssssssssccccccccccccccccccccccccccccccccccccccccccccccscsccccccccccccccccccc" />
      <path
         id="path146237"
         style="font-weight:bold;font-size:9.00943px;line-height:1.25;font-family:'Druk Wide Bold';-inkscape-font-specification:'Druk Wide Bold,  Bold';fill:none;stroke:#000e03;stroke-width:0.1;stroke-miterlimit:4;stroke-dasharray:none;stroke-opacity:1"
         d="m 107.7869,179.547 v 10.17163 h 0.50193 c 0.26569,0 0.39855,-0.1329 0.39855,-0.39855 v -3.44787 c 0,-0.3119 0.0296,-0.57761 0.0875,-0.7971 0.0462,-0.23105 0.18983,-0.49141 0.43235,-0.78022 0.24258,-0.30034 0.57207,-0.54272 0.98793,-0.72755 0.41588,-0.19639 1.02809,-0.35795 1.83674,-0.48502 0.80864,-0.13868 1.76736,-0.20772 2.87637,-0.20772 h 0.97104 c 1.06279,0 1.98647,0.0744 2.772,0.22462 0.77398,0.13867 1.36284,0.30652 1.76716,0.50291 0.39277,0.19639 0.70523,0.45043 0.93626,0.76233 0.23109,0.31191 0.37564,0.58396 0.43334,0.81501 0.0462,0.23101 0.0687,0.50208 0.0687,0.81401 v 0.10424 h -4.36624 c -0.0231,-0.12694 -0.0465,-0.21945 -0.0696,-0.27728 -0.0346,-0.0692 -0.10905,-0.1681 -0.22463,-0.2952 -0.12713,-0.12693 -0.34171,-0.21947 -0.64206,-0.2773 -0.31191,-0.0692 -0.6988,-0.10328 -1.16088,-0.10328 h -0.0687 c -0.57762,0 -1.0229,0.0404 -1.33481,0.12117 -0.31185,0.0692 -0.50212,0.15002 -0.5715,0.24251 -0.081,0.0925 -0.12117,0.20826 -0.12117,0.34687 0,0.25421 0.1733,0.40409 0.5198,0.45025 l 4.48748,0.39855 c 1.3516,0.10405 2.32201,0.38138 2.91115,0.8319 0.57761,0.43898 0.86668,1.06288 0.86668,1.87153 v 0.20772 c 0,0.84332 -0.35185,1.55333 -1.05652,2.13094 -0.71622,0.5776 -1.80246,0.86669 -3.25801,0.86669 h -0.19079 c -1.96385,0 -3.41896,-0.47304 -4.36624,-1.4203 -0.13886,0.83111 -0.6417,1.24736 -1.50775,1.24736 h -3.91598 -4.71309 v -4.19429 l -3.46575,4.19429 h -5.35517 l 4.34932,-5.19912 -3.79471,-4.12372 h 5.07786 l 3.18845,3.63868 v -7.20879 z m 26.96566,0.001 v 12.89194 h -4.71311 v -4.19329 l -3.46575,4.19329 h -5.35417 l 4.34933,-5.19911 -3.79472,-4.12372 h 5.07686 l 3.18845,3.63868 V 179.548 Z m -54.79203,0 v 2.78989 H 75.24745 V 179.548 Z m 8.94813,3.30969 c 1.14365,0 2.15445,0.10309 3.03241,0.3111 0.8664,0.20793 1.54772,0.46831 2.04446,0.78021 0.49675,0.31191 0.90167,0.68713 1.21356,1.12611 0.30034,0.43898 0.50229,0.86092 0.60629,1.26524 0.10405,0.39276 0.15598,0.80837 0.15598,1.24735 v 0.27729 c 0,0.45052 -0.0521,0.87782 -0.15598,1.28214 -0.10405,0.40434 -0.31225,0.83163 -0.62418,1.28213 -0.3119,0.45054 -0.71582,0.83743 -1.21256,1.16088 -0.50827,0.31192 -1.19594,0.57763 -2.06236,0.79712 -0.8664,0.20793 -1.87086,0.31208 -3.0145,0.31208 h -1.28215 c 0,0 -10e-4,0 -10e-4,0 -1.20098,-4e-5 -2.2465,-0.10424 -3.13577,-0.31208 -0.8895,-0.21949 -1.57716,-0.4852 -2.06234,-0.79712 -0.48518,-0.31189 -0.87207,-0.69878 -1.1609,-1.16088 -0.30029,-0.46206 -0.49058,-0.88302 -0.57148,-1.26424 -0.081,-0.39276 -0.12136,-0.82007 -0.12136,-1.28213 v -0.31209 c 0,-3.14216 2.34473,-4.71311 7.03487,-4.71311 z m -8.94813,0.25942 v 9.32283 h -4.71308 v -9.32283 z m 8.29017,2.37444 h -0.0173 c -1.05124,0 -1.79631,0.21366 -2.23529,0.64106 -0.45052,0.41588 -0.67586,0.92929 -0.67586,1.54155 v 0.0696 c 0,0.60071 0.22534,1.13747 0.67586,1.61111 0.45052,0.4621 1.19559,0.69374 2.23529,0.69374 h 0.0173 c 1.06279,0 1.81858,-0.22531 2.26909,-0.67585 0.43898,-0.46208 0.65895,-1.00519 0.65895,-1.629 v -0.0696 c 0,-0.61226 -0.21997,-1.12567 -0.65895,-1.54155 -0.45051,-0.4274 -1.2063,-0.64106 -2.26909,-0.64106 z m 25.04643,2.54638 v 0.39855 c 0,0.5083 0.25936,0.95895 0.77921,1.35172 0.50828,0.38122 1.17892,0.57249 2.01066,0.57249 0.5314,0 0.91195,-0.0925 1.143,-0.2773 0.21949,-0.18483 0.32998,-0.41017 0.32998,-0.67586 v -0.0173 c 0,-0.23105 -0.0871,-0.40428 -0.26042,-0.51981 -0.17329,-0.1154 -0.46769,-0.20794 -0.88357,-0.27731 z" />
    </g>
    <text
       xml:space="preserve"
       style="font-style:normal;font-weight:normal;font-size:5.73927px;line-height:1.25;font-family:sans-serif;fill:#000000;fill-opacity:1;stroke:none;stroke-width:0.1;stroke-miterlimit:4;stroke-dasharray:none"
       x="59.347069"
       y="127.498"
       id="text161798"><tspan
         sodipodi:role="line"
         id="tspan161796"
         style="font-style:normal;font-variant:normal;font-weight:normal;font-stretch:normal;font-family:'Druk Wide';-inkscape-font-specification:'Druk Wide';fill:none;stroke:#000702;stroke-width:0.1;stroke-miterlimit:4;stroke-dasharray:none;stroke-opacity:1"
         x="59.347069"
         y="127.498">kakoi - Split Middle Plate</tspan></text>
    <g
       id="g1654"
       transform="translate(0,-22.450643)">
      <path
         id="path1009"
         style="fill:none;fill-opacity:1;stroke:#000000;stroke-width:0.1;stroke-linecap:round;stroke-miterlimit:4;stroke-dasharray:none;stroke-opacity:1"
         d="m 102.50042,-78.90531 5.0002,4.99969 -5.0002,5.00022 h 97.49999 v 37.99974 l 4.9997,4.9997 5.0002,-4.9997 v -42.99996 c 0,-2.76999 -2.2302,-4.99969 -5.0002,-4.99969 z m 9.9999,3.99975 a 1,1 0 0 1 0.99994,1.00046 1,1 0 0 1 -0.99994,0.99994 1,1 0 0 1 -0.99994,-0.99994 1,1 0 0 1 0.99994,-1.00046 z m 92.50029,0 a 1,1 0 0 1 1.00047,0.99994 1,1 0 0 1 -1.00047,1.00046 1,1 0 0 1 -0.99994,-1.00046 1,1 0 0 1 0.99994,-0.99994 z m 0,33.00006 a 1,1 0 0 1 1.00044,0.99994 1,1 0 0 1 -1.00044,0.99993 1,1 0 0 1 -0.99994,-0.99993 1,1 0 0 1 0.99994,-0.99994 z" />
      <path
         id="path1011"
         style="fill:none;fill-opacity:1;stroke:#000000;stroke-width:0.1;stroke-linecap:round;stroke-miterlimit:4;stroke-dasharray:none;stroke-opacity:1"
         d="M 199.99988,-30.90566 V 7.09409 h -92.50029 l -5.0002,5.00021 5.0002,4.9997 h 97.49999 c 2.76998,0 5.00023,-2.2297 5.0002,-4.9997 v -42.99996 l -4.99967,4.9997 z m 5.00023,8.99997 a 1,1 0 0 1 0.99994,0.99994 1,1 0 0 1 -0.99994,0.99994 1,1 0 0 1 -1.00047,-0.99994 1,1 0 0 1 1.00047,-0.99994 z m -87.50062,32.99954 a 1,1 0 0 1 0.99994,0.99994 1,1 0 0 1 -0.99994,1.00045 1,1 0 0 1 -0.99994,-1.00045 1,1 0 0 1 0.99994,-0.99994 z m 87.50009,0 a 1,1 0 0 1 0.99994,1.00045 1,1 0 0 1 -0.99994,0.99994 1,1 0 0 1 -1.00044,-0.99994 1,1 0 0 1 1.00044,-1.00045 z" />
      <path
         id="path1013"
         style="fill:none;fill-opacity:1;stroke:#000000;stroke-width:0.1;stroke-linecap:round;stroke-miterlimit:4;stroke-dasharray:none;stroke-opacity:1"
         d="M 4.9999,-35.90535 -3e-4,-30.90566 V 12.0943 c 0,2.76999 2.2302,4.9997 5.0002,4.9997 h 102.49969 l -5.0002,-4.9997 5.0002,-5.00021 H 9.9996 v -37.99975 z m 0,13.99966 a 1,1 0 0 1 1.00047,0.99994 1,1 0 0 1 -1.00047,0.99994 1,1 0 0 1 -0.99994,-0.99994 1,1 0 0 1 0.99994,-0.99994 z m 0,32.99954 A 1,1 0 0 1 5.99984,12.0943 1,1 0 0 1 4.9999,13.09424 1,1 0 0 1 3.99943,12.0943 1,1 0 0 1 4.9999,11.09385 Z m 92.50029,0 a 1,1 0 0 1 0.99994,0.99994 1,1 0 0 1 -0.99994,1.00045 1,1 0 0 1 -0.99994,-1.00045 1,1 0 0 1 0.99994,-0.99994 z" />
      <path
         id="path1314"
         style="fill:none;fill-opacity:1;stroke:#000000;stroke-width:0.377953;stroke-linecap:round;stroke-miterlimit:4;stroke-dasharray:none;stroke-opacity:1"
         d="m 19.089844,-415.4668 c -10.469216,0 -18.89855114,8.4272 -18.89843775,18.89649 v 162.51953 l 18.89648475,-18.89649 18.898437,18.89649 v -143.6211 H 387.59375 l 18.89844,-18.89843 -18.89844,-18.89649 z m 0,15.11719 a 3.7795276,3.7795276 0 0 1 3.78125,3.7793 3.7795276,3.7795276 0 0 1 -3.78125,3.78125 3.7795276,3.7795276 0 0 1 -3.779297,-3.78125 3.7795276,3.7795276 0 0 1 3.779297,-3.7793 z m 196.535156,0 a 3.7795276,3.7795276 0 0 1 3.7793,3.7793 3.7795276,3.7795276 0 0 1 -3.7793,3.78125 3.7795276,3.7795276 0 0 1 -3.7793,-3.78125 3.7795276,3.7795276 0 0 1 3.7793,-3.7793 z m 134.17383,0 a 3.7795276,3.7795276 0 0 1 3.77929,3.78125 3.7795276,3.7795276 0 0 1 -3.77929,3.7793 3.7795276,3.7795276 0 0 1 -3.7793,-3.7793 3.7795276,3.7795276 0 0 1 3.7793,-3.78125 z M 19.087891,-275.625 a 3.7795276,3.7795276 0 0 1 3.78125,3.7793 3.7795276,3.7795276 0 0 1 -3.78125,3.77929 3.7795276,3.7795276 0 0 1 -3.779297,-3.77929 3.7795276,3.7795276 0 0 1 3.779297,-3.7793 z"
         transform="matrix(0.26458333,0,0,0.26458333,-0.050304,31.02029)" />
    </g>
    <text
       xml:space="preserve"
       style="font-style:normal;font-weight:normal;font-size:5.73927px;line-height:1.25;font-family:sans-serif;fill:#000000;fill-opacity:1;stroke:none;stroke-width:0.1;stroke-miterlimit:4;stroke-dasharray:none"
       x="59.347069"
       y="8.0170183"
       id="text1648"><tspan
         sodipodi:role="line"
         id="tspan1646"
         style="font-style:normal;font-variant:normal;font-weight:normal;font-stretch:normal;font-family:'Druk Wide';-inkscape-font-specification:'Druk Wide';fill:none;stroke:#000702;stroke-width:0.1;stroke-miterlimit:4;stroke-dasharray:none;stroke-opacity:1"
         x="59.347069"
         y="8.0170183">kakoi - Split Top Plate</tspan></text>
  </g>
</svg>
